<mxfile host="65bd71144e" pages="3">
    <diagram name="Ejemplo" id="AOHAi6Hs9sP0VKXJI1iI">
        <mxGraphModel dx="3028" dy="3112" grid="1" gridSize="10" guides="1" tooltips="1" connect="1" arrows="1" fold="1" page="1" pageScale="1" pageWidth="827" pageHeight="1169" math="0" shadow="0">
            <root>
                <mxCell id="y9Ch99dVO2wmUKqUw9Gn-0"/>
                <mxCell id="y9Ch99dVO2wmUKqUw9Gn-1" parent="y9Ch99dVO2wmUKqUw9Gn-0"/>
                <mxCell id="y9Ch99dVO2wmUKqUw9Gn-5" value="&lt;div&gt;&lt;b&gt;dc:creator:&lt;/b&gt;&amp;nbsp;Oier Beaskoetxea&lt;/div&gt;&lt;div&gt;&lt;b&gt;owl:versionInfo:&lt;/b&gt; 0.4.2&lt;/div&gt;&lt;div&gt;&lt;b&gt;dc:title:&lt;/b&gt;&amp;nbsp;Photocatalysis Ontology&lt;/div&gt;" style="shape=document;whiteSpace=wrap;html=1;boundedLbl=1;labelBackgroundColor=#ffffff;strokeColor=#000000;fontSize=12;fontColor=#000000;size=0.23333333333333334;" parent="y9Ch99dVO2wmUKqUw9Gn-1" vertex="1">
                    <mxGeometry x="-1080" y="-1250" width="253" height="90" as="geometry"/>
                </mxCell>
                <mxCell id="y9Ch99dVO2wmUKqUw9Gn-6" value="&lt;div&gt;&lt;b&gt;phcat:&lt;/b&gt;&amp;nbsp;http://base.namespace.com/&lt;/div&gt;&lt;b&gt;qudt:&lt;/b&gt;&amp;nbsp;http://qudt.org//2.1/schema/qudt/&lt;div&gt;&lt;b&gt;unit:&amp;nbsp;&lt;/b&gt;http://qudt.org/2.1/vocab/unit&lt;br&gt;&lt;/div&gt;&lt;div&gt;&lt;b&gt;bibo:&amp;nbsp;&lt;/b&gt;http://purl.org/ontology/bibo&lt;/div&gt;&lt;b&gt;dc:&amp;nbsp;&lt;/b&gt;http://purl.org/dc/terms&lt;br&gt;&lt;b&gt;owl:&amp;nbsp;&lt;/b&gt;http://www.w3.org/2002/07/owl#&lt;br&gt;&lt;b&gt;rdfs:&amp;nbsp;&lt;/b&gt;http://www.w3.org/2000/01/rdf-schema#&lt;br&gt;&lt;div&gt;&lt;b&gt;chebi:&amp;nbsp;&lt;/b&gt;http://purl.obolibrary.org/obo/&lt;/div&gt;&lt;div&gt;&lt;b&gt;xsd:&amp;nbsp;&lt;/b&gt;http://www.w3.org/2001/XMLSchema#&lt;br&gt;&lt;/div&gt;&lt;div&gt;&lt;b&gt;schema:&lt;/b&gt;&amp;nbsp;https://schema.org/&lt;br&gt;&lt;/div&gt;&lt;div&gt;&lt;b&gt;rdf:&amp;nbsp;&lt;/b&gt;http://www.w3.org/1999/02/22-rdf-syntax-ns#&lt;/div&gt;" style="shape=note;whiteSpace=wrap;html=1;backgroundOutline=1;darkOpacity=0.05;align=center;" parent="y9Ch99dVO2wmUKqUw9Gn-1" vertex="1">
                    <mxGeometry x="-1080" y="-1140" width="358.5" height="180" as="geometry"/>
                </mxCell>
                <mxCell id="y9Ch99dVO2wmUKqUw9Gn-82" value="*Note: pendiente de elegir la url" style="text;html=1;align=center;verticalAlign=middle;resizable=0;points=[];autosize=1;strokeColor=none;fillColor=none;" parent="y9Ch99dVO2wmUKqUw9Gn-1" vertex="1">
                    <mxGeometry x="-800" y="-1140" width="180" height="20" as="geometry"/>
                </mxCell>
                <mxCell id="JlitmSAJsw8VmAW7Jw8D-3" style="edgeStyle=none;rounded=0;orthogonalLoop=1;jettySize=auto;html=1;" parent="y9Ch99dVO2wmUKqUw9Gn-1" source="yPosjqxv40HL2GVmoQ_2-0" target="JlitmSAJsw8VmAW7Jw8D-1" edge="1">
                    <mxGeometry relative="1" as="geometry"/>
                </mxCell>
                <mxCell id="JlitmSAJsw8VmAW7Jw8D-4" value="dc:isPartOf" style="edgeLabel;html=1;align=center;verticalAlign=middle;resizable=0;points=[];" parent="JlitmSAJsw8VmAW7Jw8D-3" vertex="1" connectable="0">
                    <mxGeometry x="0.1233" relative="1" as="geometry">
                        <mxPoint as="offset"/>
                    </mxGeometry>
                </mxCell>
                <mxCell id="bjZbgZbGjA4of5Ys-AiP-9" style="edgeStyle=none;rounded=0;orthogonalLoop=1;jettySize=auto;html=1;" parent="y9Ch99dVO2wmUKqUw9Gn-1" source="yPosjqxv40HL2GVmoQ_2-0" target="bjZbgZbGjA4of5Ys-AiP-6" edge="1">
                    <mxGeometry relative="1" as="geometry"/>
                </mxCell>
                <mxCell id="bjZbgZbGjA4of5Ys-AiP-10" value="phcat:hasMaterialTransformationProcess" style="edgeLabel;html=1;align=center;verticalAlign=middle;resizable=0;points=[];" parent="bjZbgZbGjA4of5Ys-AiP-9" vertex="1" connectable="0">
                    <mxGeometry x="-0.438" y="2" relative="1" as="geometry">
                        <mxPoint as="offset"/>
                    </mxGeometry>
                </mxCell>
                <mxCell id="bjZbgZbGjA4of5Ys-AiP-13" style="edgeStyle=none;rounded=0;orthogonalLoop=1;jettySize=auto;html=1;" parent="y9Ch99dVO2wmUKqUw9Gn-1" source="yPosjqxv40HL2GVmoQ_2-0" target="bjZbgZbGjA4of5Ys-AiP-12" edge="1">
                    <mxGeometry relative="1" as="geometry"/>
                </mxCell>
                <mxCell id="bjZbgZbGjA4of5Ys-AiP-14" value="bibo:doi" style="edgeLabel;html=1;align=center;verticalAlign=middle;resizable=0;points=[];" parent="bjZbgZbGjA4of5Ys-AiP-13" vertex="1" connectable="0">
                    <mxGeometry x="0.1639" relative="1" as="geometry">
                        <mxPoint as="offset"/>
                    </mxGeometry>
                </mxCell>
                <mxCell id="yPosjqxv40HL2GVmoQ_2-0" value="&amp;lt;https://doi.org/10.1039/C2JM31736B&amp;gt;" style="ellipse;whiteSpace=wrap;html=1;fillColor=default;" parent="y9Ch99dVO2wmUKqUw9Gn-1" vertex="1">
                    <mxGeometry x="-780" y="-540" width="256.61" height="50" as="geometry"/>
                </mxCell>
                <mxCell id="JlitmSAJsw8VmAW7Jw8D-1" value="&amp;lt;https://portal.issn.org/resource/ISSN/0959-9428&amp;gt;" style="ellipse;whiteSpace=wrap;html=1;fillColor=default;" parent="y9Ch99dVO2wmUKqUw9Gn-1" vertex="1">
                    <mxGeometry x="-495.00000000000006" y="-910" width="310" height="50" as="geometry"/>
                </mxCell>
                <mxCell id="JlitmSAJsw8VmAW7Jw8D-5" value="&amp;lt;https://orcid.org/0000-0003-2227-5008&amp;gt;" style="ellipse;whiteSpace=wrap;html=1;fillColor=default;" parent="y9Ch99dVO2wmUKqUw9Gn-1" vertex="1">
                    <mxGeometry x="-380" y="-770" width="256.61" height="50" as="geometry"/>
                </mxCell>
                <mxCell id="JlitmSAJsw8VmAW7Jw8D-6" value="&amp;lt;https://orcid.org/0000-0002-4106-9093&amp;gt;" style="ellipse;whiteSpace=wrap;html=1;fillColor=default;" parent="y9Ch99dVO2wmUKqUw9Gn-1" vertex="1">
                    <mxGeometry x="-390" y="-602.48" width="256.61" height="50" as="geometry"/>
                </mxCell>
                <mxCell id="JlitmSAJsw8VmAW7Jw8D-7" value="&amp;lt;https://scholar.google.com/citations?user=GZOJpwYAAAAJ&amp;amp;hl=es&amp;amp;oi=sra&amp;gt;" style="ellipse;whiteSpace=wrap;html=1;fillColor=default;" parent="y9Ch99dVO2wmUKqUw9Gn-1" vertex="1">
                    <mxGeometry x="-420" y="-510" width="456.61" height="50" as="geometry"/>
                </mxCell>
                <mxCell id="JlitmSAJsw8VmAW7Jw8D-8" value="&amp;lt;https://orcid.org/0000-0003-3030-2440&amp;gt;" style="ellipse;whiteSpace=wrap;html=1;fillColor=default;" parent="y9Ch99dVO2wmUKqUw9Gn-1" vertex="1">
                    <mxGeometry x="-370" y="-430" width="256.61" height="50" as="geometry"/>
                </mxCell>
                <mxCell id="JlitmSAJsw8VmAW7Jw8D-9" style="edgeStyle=none;rounded=0;orthogonalLoop=1;jettySize=auto;html=1;" parent="y9Ch99dVO2wmUKqUw9Gn-1" source="yPosjqxv40HL2GVmoQ_2-0" target="JlitmSAJsw8VmAW7Jw8D-5" edge="1">
                    <mxGeometry relative="1" as="geometry">
                        <mxPoint x="-610.8835921121745" y="-529.2684448228424" as="sourcePoint"/>
                        <mxPoint x="-406.0665051378569" y="-690.5072945841471" as="targetPoint"/>
                    </mxGeometry>
                </mxCell>
                <mxCell id="JlitmSAJsw8VmAW7Jw8D-10" value="dc:creator" style="edgeLabel;html=1;align=center;verticalAlign=middle;resizable=0;points=[];" parent="JlitmSAJsw8VmAW7Jw8D-9" vertex="1" connectable="0">
                    <mxGeometry x="0.1233" relative="1" as="geometry">
                        <mxPoint as="offset"/>
                    </mxGeometry>
                </mxCell>
                <mxCell id="JlitmSAJsw8VmAW7Jw8D-11" style="edgeStyle=none;rounded=0;orthogonalLoop=1;jettySize=auto;html=1;" parent="y9Ch99dVO2wmUKqUw9Gn-1" source="yPosjqxv40HL2GVmoQ_2-0" target="JlitmSAJsw8VmAW7Jw8D-6" edge="1">
                    <mxGeometry relative="1" as="geometry">
                        <mxPoint x="-527.2430649395606" y="-516.2993948626547" as="sourcePoint"/>
                        <mxPoint x="-355.8445079866751" y="-533.5850492013326" as="targetPoint"/>
                    </mxGeometry>
                </mxCell>
                <mxCell id="JlitmSAJsw8VmAW7Jw8D-12" value="dc:creator" style="edgeLabel;html=1;align=center;verticalAlign=middle;resizable=0;points=[];" parent="JlitmSAJsw8VmAW7Jw8D-11" vertex="1" connectable="0">
                    <mxGeometry x="0.1233" relative="1" as="geometry">
                        <mxPoint as="offset"/>
                    </mxGeometry>
                </mxCell>
                <mxCell id="JlitmSAJsw8VmAW7Jw8D-13" style="edgeStyle=none;rounded=0;orthogonalLoop=1;jettySize=auto;html=1;" parent="y9Ch99dVO2wmUKqUw9Gn-1" source="yPosjqxv40HL2GVmoQ_2-0" target="JlitmSAJsw8VmAW7Jw8D-7" edge="1">
                    <mxGeometry relative="1" as="geometry">
                        <mxPoint x="-517.2430649395606" y="-506.2993948626547" as="sourcePoint"/>
                        <mxPoint x="-345.8445079866751" y="-523.5850492013326" as="targetPoint"/>
                    </mxGeometry>
                </mxCell>
                <mxCell id="JlitmSAJsw8VmAW7Jw8D-14" value="dc:creator" style="edgeLabel;html=1;align=center;verticalAlign=middle;resizable=0;points=[];" parent="JlitmSAJsw8VmAW7Jw8D-13" vertex="1" connectable="0">
                    <mxGeometry x="0.1233" relative="1" as="geometry">
                        <mxPoint as="offset"/>
                    </mxGeometry>
                </mxCell>
                <mxCell id="JlitmSAJsw8VmAW7Jw8D-15" style="edgeStyle=none;rounded=0;orthogonalLoop=1;jettySize=auto;html=1;" parent="y9Ch99dVO2wmUKqUw9Gn-1" source="yPosjqxv40HL2GVmoQ_2-0" target="JlitmSAJsw8VmAW7Jw8D-8" edge="1">
                    <mxGeometry relative="1" as="geometry">
                        <mxPoint x="-507.24306493956055" y="-496.2993948626547" as="sourcePoint"/>
                        <mxPoint x="-335.8445079866751" y="-513.5850492013326" as="targetPoint"/>
                    </mxGeometry>
                </mxCell>
                <mxCell id="JlitmSAJsw8VmAW7Jw8D-16" value="dc:creator" style="edgeLabel;html=1;align=center;verticalAlign=middle;resizable=0;points=[];" parent="JlitmSAJsw8VmAW7Jw8D-15" vertex="1" connectable="0">
                    <mxGeometry x="0.1233" relative="1" as="geometry">
                        <mxPoint as="offset"/>
                    </mxGeometry>
                </mxCell>
                <mxCell id="JlitmSAJsw8VmAW7Jw8D-18" value="&amp;lt;https://en.wikipedia.org/wiki/China&amp;gt;" style="ellipse;whiteSpace=wrap;html=1;fillColor=default;" parent="y9Ch99dVO2wmUKqUw9Gn-1" vertex="1">
                    <mxGeometry x="210" y="-510" width="256.61" height="50" as="geometry"/>
                </mxCell>
                <mxCell id="JlitmSAJsw8VmAW7Jw8D-19" style="edgeStyle=none;rounded=0;orthogonalLoop=1;jettySize=auto;html=1;" parent="y9Ch99dVO2wmUKqUw9Gn-1" source="JlitmSAJsw8VmAW7Jw8D-5" target="JlitmSAJsw8VmAW7Jw8D-18" edge="1">
                    <mxGeometry relative="1" as="geometry">
                        <mxPoint x="96.61450677285166" y="-678.9184170977805" as="sourcePoint"/>
                        <mxPoint x="555.5165706203347" y="-789.9994122468552" as="targetPoint"/>
                    </mxGeometry>
                </mxCell>
                <mxCell id="JlitmSAJsw8VmAW7Jw8D-20" value="schema:nationality" style="edgeLabel;html=1;align=center;verticalAlign=middle;resizable=0;points=[];" parent="JlitmSAJsw8VmAW7Jw8D-19" vertex="1" connectable="0">
                    <mxGeometry x="0.1233" relative="1" as="geometry">
                        <mxPoint as="offset"/>
                    </mxGeometry>
                </mxCell>
                <mxCell id="bjZbgZbGjA4of5Ys-AiP-0" style="edgeStyle=none;rounded=0;orthogonalLoop=1;jettySize=auto;html=1;" parent="y9Ch99dVO2wmUKqUw9Gn-1" source="JlitmSAJsw8VmAW7Jw8D-6" target="JlitmSAJsw8VmAW7Jw8D-18" edge="1">
                    <mxGeometry relative="1" as="geometry">
                        <mxPoint x="70.00328669071905" y="-618.494934323689" as="sourcePoint"/>
                        <mxPoint x="577.3054210000755" y="-531.5136421142727" as="targetPoint"/>
                    </mxGeometry>
                </mxCell>
                <mxCell id="bjZbgZbGjA4of5Ys-AiP-1" value="schema:nationality" style="edgeLabel;html=1;align=center;verticalAlign=middle;resizable=0;points=[];" parent="bjZbgZbGjA4of5Ys-AiP-0" vertex="1" connectable="0">
                    <mxGeometry x="0.1233" relative="1" as="geometry">
                        <mxPoint as="offset"/>
                    </mxGeometry>
                </mxCell>
                <mxCell id="bjZbgZbGjA4of5Ys-AiP-2" style="edgeStyle=none;rounded=0;orthogonalLoop=1;jettySize=auto;html=1;" parent="y9Ch99dVO2wmUKqUw9Gn-1" source="JlitmSAJsw8VmAW7Jw8D-7" target="JlitmSAJsw8VmAW7Jw8D-18" edge="1">
                    <mxGeometry relative="1" as="geometry">
                        <mxPoint x="73.93264112854195" y="-559.9194703955368" as="sourcePoint"/>
                        <mxPoint x="552.7619477890057" y="-540.1593035155202" as="targetPoint"/>
                    </mxGeometry>
                </mxCell>
                <mxCell id="bjZbgZbGjA4of5Ys-AiP-3" value="schema:nationality" style="edgeLabel;html=1;align=center;verticalAlign=middle;resizable=0;points=[];" parent="bjZbgZbGjA4of5Ys-AiP-2" vertex="1" connectable="0">
                    <mxGeometry x="0.1233" relative="1" as="geometry">
                        <mxPoint as="offset"/>
                    </mxGeometry>
                </mxCell>
                <mxCell id="bjZbgZbGjA4of5Ys-AiP-4" style="edgeStyle=none;rounded=0;orthogonalLoop=1;jettySize=auto;html=1;" parent="y9Ch99dVO2wmUKqUw9Gn-1" source="JlitmSAJsw8VmAW7Jw8D-8" target="JlitmSAJsw8VmAW7Jw8D-18" edge="1">
                    <mxGeometry relative="1" as="geometry">
                        <mxPoint x="260.13768823936607" y="-500.11772927625225" as="sourcePoint"/>
                        <mxPoint x="560.3361970664037" y="-525.1692664222005" as="targetPoint"/>
                    </mxGeometry>
                </mxCell>
                <mxCell id="bjZbgZbGjA4of5Ys-AiP-5" value="schema:nationality" style="edgeLabel;html=1;align=center;verticalAlign=middle;resizable=0;points=[];" parent="bjZbgZbGjA4of5Ys-AiP-4" vertex="1" connectable="0">
                    <mxGeometry x="0.1233" relative="1" as="geometry">
                        <mxPoint as="offset"/>
                    </mxGeometry>
                </mxCell>
                <mxCell id="0" style="edgeStyle=none;html=1;" edge="1" parent="y9Ch99dVO2wmUKqUw9Gn-1" source="bjZbgZbGjA4of5Ys-AiP-6" target="yPosjqxv40HL2GVmoQ_2-0">
                    <mxGeometry relative="1" as="geometry">
                        <mxPoint x="-760" y="-270" as="sourcePoint"/>
                    </mxGeometry>
                </mxCell>
                <mxCell id="1" value="phcat:reportedIn" style="edgeLabel;html=1;align=center;verticalAlign=middle;resizable=0;points=[];" vertex="1" connectable="0" parent="0">
                    <mxGeometry x="-0.3273" y="2" relative="1" as="geometry">
                        <mxPoint as="offset"/>
                    </mxGeometry>
                </mxCell>
                <mxCell id="bjZbgZbGjA4of5Ys-AiP-6" value="&amp;lt;#process4&amp;gt;" style="ellipse;whiteSpace=wrap;html=1;fillColor=default;" parent="y9Ch99dVO2wmUKqUw9Gn-1" vertex="1">
                    <mxGeometry x="-721.5" y="-270" width="110" height="50" as="geometry"/>
                </mxCell>
                <mxCell id="bjZbgZbGjA4of5Ys-AiP-12" value="&quot;10.1039/C2JM31736B&quot;" style="rounded=0;whiteSpace=wrap;html=1;fillColor=default;" parent="y9Ch99dVO2wmUKqUw9Gn-1" vertex="1">
                    <mxGeometry x="-650" y="-780" width="160" height="40" as="geometry"/>
                </mxCell>
                <mxCell id="bjZbgZbGjA4of5Ys-AiP-15" style="edgeStyle=none;rounded=0;orthogonalLoop=1;jettySize=auto;html=1;" parent="y9Ch99dVO2wmUKqUw9Gn-1" source="yPosjqxv40HL2GVmoQ_2-0" target="bjZbgZbGjA4of5Ys-AiP-17" edge="1">
                    <mxGeometry relative="1" as="geometry">
                        <mxPoint x="-820.3791880231115" y="-529.947435930665" as="sourcePoint"/>
                    </mxGeometry>
                </mxCell>
                <mxCell id="bjZbgZbGjA4of5Ys-AiP-16" value="bibo:abstract" style="edgeLabel;html=1;align=center;verticalAlign=middle;resizable=0;points=[];" parent="bjZbgZbGjA4of5Ys-AiP-15" vertex="1" connectable="0">
                    <mxGeometry x="0.1639" relative="1" as="geometry">
                        <mxPoint as="offset"/>
                    </mxGeometry>
                </mxCell>
                <mxCell id="bjZbgZbGjA4of5Ys-AiP-17" value="&quot;Heterostructured Ag@AgBr/AgCl ...&quot;" style="rounded=0;whiteSpace=wrap;html=1;fillColor=default;" parent="y9Ch99dVO2wmUKqUw9Gn-1" vertex="1">
                    <mxGeometry x="-840" y="-780" width="173" height="40" as="geometry"/>
                </mxCell>
                <mxCell id="bjZbgZbGjA4of5Ys-AiP-19" style="edgeStyle=none;rounded=0;orthogonalLoop=1;jettySize=auto;html=1;" parent="y9Ch99dVO2wmUKqUw9Gn-1" source="yPosjqxv40HL2GVmoQ_2-0" target="bjZbgZbGjA4of5Ys-AiP-21" edge="1">
                    <mxGeometry relative="1" as="geometry">
                        <mxPoint x="-814.408824786178" y="-489.9982491500717" as="sourcePoint"/>
                    </mxGeometry>
                </mxCell>
                <mxCell id="bjZbgZbGjA4of5Ys-AiP-20" value="bibo:volume" style="edgeLabel;html=1;align=center;verticalAlign=middle;resizable=0;points=[];" parent="bjZbgZbGjA4of5Ys-AiP-19" vertex="1" connectable="0">
                    <mxGeometry x="0.1639" relative="1" as="geometry">
                        <mxPoint as="offset"/>
                    </mxGeometry>
                </mxCell>
                <mxCell id="bjZbgZbGjA4of5Ys-AiP-21" value="22" style="rounded=0;whiteSpace=wrap;html=1;fillColor=default;" parent="y9Ch99dVO2wmUKqUw9Gn-1" vertex="1">
                    <mxGeometry x="-920" y="-730" width="70" height="40.07" as="geometry"/>
                </mxCell>
                <mxCell id="bjZbgZbGjA4of5Ys-AiP-22" style="edgeStyle=none;rounded=0;orthogonalLoop=1;jettySize=auto;html=1;" parent="y9Ch99dVO2wmUKqUw9Gn-1" source="yPosjqxv40HL2GVmoQ_2-0" target="bjZbgZbGjA4of5Ys-AiP-24" edge="1">
                    <mxGeometry relative="1" as="geometry">
                        <mxPoint x="-780.0038786169918" y="-479.45316103651066" as="sourcePoint"/>
                    </mxGeometry>
                </mxCell>
                <mxCell id="bjZbgZbGjA4of5Ys-AiP-23" value="dc:title" style="edgeLabel;html=1;align=center;verticalAlign=middle;resizable=0;points=[];" parent="bjZbgZbGjA4of5Ys-AiP-22" vertex="1" connectable="0">
                    <mxGeometry x="0.1639" relative="1" as="geometry">
                        <mxPoint as="offset"/>
                    </mxGeometry>
                </mxCell>
                <mxCell id="bjZbgZbGjA4of5Ys-AiP-24" value="&quot;Synthesis of Ag@AgBr/AgCl ...&quot;" style="rounded=0;whiteSpace=wrap;html=1;fillColor=default;" parent="y9Ch99dVO2wmUKqUw9Gn-1" vertex="1">
                    <mxGeometry x="-1080" y="-680" width="138.38" height="40.07" as="geometry"/>
                </mxCell>
                <mxCell id="bjZbgZbGjA4of5Ys-AiP-25" style="edgeStyle=none;rounded=0;orthogonalLoop=1;jettySize=auto;html=1;" parent="y9Ch99dVO2wmUKqUw9Gn-1" source="yPosjqxv40HL2GVmoQ_2-0" target="bjZbgZbGjA4of5Ys-AiP-27" edge="1">
                    <mxGeometry relative="1" as="geometry">
                        <mxPoint x="-757.4410424844898" y="-459.99702892510754" as="sourcePoint"/>
                    </mxGeometry>
                </mxCell>
                <mxCell id="bjZbgZbGjA4of5Ys-AiP-26" value="dc:date" style="edgeLabel;html=1;align=center;verticalAlign=middle;resizable=0;points=[];" parent="bjZbgZbGjA4of5Ys-AiP-25" vertex="1" connectable="0">
                    <mxGeometry x="0.1639" relative="1" as="geometry">
                        <mxPoint as="offset"/>
                    </mxGeometry>
                </mxCell>
                <mxCell id="bjZbgZbGjA4of5Ys-AiP-27" value="2012" style="rounded=0;whiteSpace=wrap;html=1;fillColor=default;" parent="y9Ch99dVO2wmUKqUw9Gn-1" vertex="1">
                    <mxGeometry x="-1130" y="-602.48" width="138.38" height="40.07" as="geometry"/>
                </mxCell>
                <mxCell id="bjZbgZbGjA4of5Ys-AiP-28" style="edgeStyle=none;rounded=0;orthogonalLoop=1;jettySize=auto;html=1;" parent="y9Ch99dVO2wmUKqUw9Gn-1" source="yPosjqxv40HL2GVmoQ_2-0" target="bjZbgZbGjA4of5Ys-AiP-30" edge="1">
                    <mxGeometry relative="1" as="geometry">
                        <mxPoint x="-745.0357955887216" y="-467.3372464263241" as="sourcePoint"/>
                    </mxGeometry>
                </mxCell>
                <mxCell id="bjZbgZbGjA4of5Ys-AiP-29" value="bibo:pageStart" style="edgeLabel;html=1;align=center;verticalAlign=middle;resizable=0;points=[];" parent="bjZbgZbGjA4of5Ys-AiP-28" vertex="1" connectable="0">
                    <mxGeometry x="0.1639" relative="1" as="geometry">
                        <mxPoint as="offset"/>
                    </mxGeometry>
                </mxCell>
                <mxCell id="bjZbgZbGjA4of5Ys-AiP-30" value="13153" style="rounded=0;whiteSpace=wrap;html=1;fillColor=default;" parent="y9Ch99dVO2wmUKqUw9Gn-1" vertex="1">
                    <mxGeometry x="-1110" y="-530" width="138.38" height="40.07" as="geometry"/>
                </mxCell>
                <mxCell id="bjZbgZbGjA4of5Ys-AiP-31" style="edgeStyle=none;rounded=0;orthogonalLoop=1;jettySize=auto;html=1;" parent="y9Ch99dVO2wmUKqUw9Gn-1" source="JlitmSAJsw8VmAW7Jw8D-5" target="bjZbgZbGjA4of5Ys-AiP-33" edge="1">
                    <mxGeometry relative="1" as="geometry">
                        <mxPoint x="-23.37918802320064" y="-562.4074359303982" as="sourcePoint"/>
                    </mxGeometry>
                </mxCell>
                <mxCell id="bjZbgZbGjA4of5Ys-AiP-32" value="schema:email" style="edgeLabel;html=1;align=center;verticalAlign=middle;resizable=0;points=[];" parent="bjZbgZbGjA4of5Ys-AiP-31" vertex="1" connectable="0">
                    <mxGeometry x="0.1639" relative="1" as="geometry">
                        <mxPoint as="offset"/>
                    </mxGeometry>
                </mxCell>
                <mxCell id="bjZbgZbGjA4of5Ys-AiP-33" value="&quot;qhzhang@upc.edu.cn&quot;" style="rounded=0;whiteSpace=wrap;html=1;fillColor=default;" parent="y9Ch99dVO2wmUKqUw9Gn-1" vertex="1">
                    <mxGeometry x="-170" y="-870" width="160" height="40" as="geometry"/>
                </mxCell>
                <mxCell id="bjZbgZbGjA4of5Ys-AiP-34" style="edgeStyle=none;rounded=0;orthogonalLoop=1;jettySize=auto;html=1;" parent="y9Ch99dVO2wmUKqUw9Gn-1" source="JlitmSAJsw8VmAW7Jw8D-6" target="bjZbgZbGjA4of5Ys-AiP-36" edge="1">
                    <mxGeometry relative="1" as="geometry">
                        <mxPoint x="-222.36636022998755" y="-667.1667445294552" as="sourcePoint"/>
                    </mxGeometry>
                </mxCell>
                <mxCell id="bjZbgZbGjA4of5Ys-AiP-35" value="schema:email" style="edgeLabel;html=1;align=center;verticalAlign=middle;resizable=0;points=[];" parent="bjZbgZbGjA4of5Ys-AiP-34" vertex="1" connectable="0">
                    <mxGeometry x="0.1639" relative="1" as="geometry">
                        <mxPoint as="offset"/>
                    </mxGeometry>
                </mxCell>
                <mxCell id="bjZbgZbGjA4of5Ys-AiP-36" value="&quot;jizhuang@jnu.edu.cn&quot;" style="rounded=0;whiteSpace=wrap;html=1;fillColor=default;" parent="y9Ch99dVO2wmUKqUw9Gn-1" vertex="1">
                    <mxGeometry x="-321.7" y="-680" width="160" height="40" as="geometry"/>
                </mxCell>
                <mxCell id="bjZbgZbGjA4of5Ys-AiP-37" style="edgeStyle=none;rounded=0;orthogonalLoop=1;jettySize=auto;html=1;" parent="y9Ch99dVO2wmUKqUw9Gn-1" source="JlitmSAJsw8VmAW7Jw8D-1" target="bjZbgZbGjA4of5Ys-AiP-39" edge="1">
                    <mxGeometry relative="1" as="geometry">
                        <mxPoint x="-268.454737170734" y="-578.5375130997231" as="sourcePoint"/>
                    </mxGeometry>
                </mxCell>
                <mxCell id="bjZbgZbGjA4of5Ys-AiP-38" value="dc:title" style="edgeLabel;html=1;align=center;verticalAlign=middle;resizable=0;points=[];" parent="bjZbgZbGjA4of5Ys-AiP-37" vertex="1" connectable="0">
                    <mxGeometry x="0.1639" relative="1" as="geometry">
                        <mxPoint as="offset"/>
                    </mxGeometry>
                </mxCell>
                <mxCell id="bjZbgZbGjA4of5Ys-AiP-39" value="&quot;Journal of Materials Chemistry&quot;" style="rounded=0;whiteSpace=wrap;html=1;fillColor=default;" parent="y9Ch99dVO2wmUKqUw9Gn-1" vertex="1">
                    <mxGeometry x="-420" y="-1030" width="160" height="40" as="geometry"/>
                </mxCell>
            </root>
        </mxGraphModel>
    </diagram>
    <diagram name="v0.4.2" id="2ynKBrc6Pb0L9IucNjZK">
        <mxGraphModel dx="2201" dy="1943" grid="1" gridSize="10" guides="1" tooltips="1" connect="1" arrows="1" fold="1" page="1" pageScale="1" pageWidth="827" pageHeight="1169" math="0" shadow="0">
            <root>
                <mxCell id="SLhK5RNujh2QTGwtFG9k-0"/>
                <mxCell id="SLhK5RNujh2QTGwtFG9k-1" parent="SLhK5RNujh2QTGwtFG9k-0"/>
                <mxCell id="TM-6vdGgmFQAHBn-hN1Q-0" value="&lt;div&gt;&lt;b&gt;dc:creator:&lt;/b&gt;&amp;nbsp;Oier Beaskoetxea&lt;/div&gt;&lt;div&gt;&lt;b&gt;owl:versionInfo:&lt;/b&gt; 0.4.2&lt;/div&gt;&lt;div&gt;&lt;b&gt;dc:title:&lt;/b&gt;&amp;nbsp;Photocatalysis Ontology&lt;/div&gt;" style="shape=document;whiteSpace=wrap;html=1;boundedLbl=1;labelBackgroundColor=#ffffff;strokeColor=#000000;fontSize=12;fontColor=#000000;size=0.23333333333333334;" vertex="1" parent="SLhK5RNujh2QTGwtFG9k-1">
                    <mxGeometry x="-4.610000000000014" y="-290" width="253" height="90" as="geometry"/>
                </mxCell>
                <mxCell id="TM-6vdGgmFQAHBn-hN1Q-1" value="&lt;div&gt;&lt;b&gt;phcat:&lt;/b&gt; http://base.namespace.com/&lt;/div&gt;&lt;b&gt;qudt:&lt;/b&gt; http://qudt.org//2.1/schema/qudt/&lt;div&gt;&lt;b&gt;unit:&amp;nbsp;&lt;/b&gt;http://qudt.org/2.1/vocab/unit&lt;span&gt;&lt;br&gt;&lt;/span&gt;&lt;/div&gt;&lt;div&gt;&lt;b&gt;bibo:&amp;nbsp;&lt;/b&gt;http://purl.org/ontology/bibo&lt;/div&gt;&lt;b&gt;dc:&amp;nbsp;&lt;/b&gt;http://purl.org/dc/terms&lt;br&gt;&lt;b&gt;owl: &lt;/b&gt;http://www.w3.org/2002/07/owl#&lt;br&gt;&lt;b&gt;rdfs:&amp;nbsp;&lt;/b&gt;http://www.w3.org/2000/01/rdf-schema#&lt;br&gt;&lt;div&gt;&lt;b&gt;chebi:&amp;nbsp;&lt;/b&gt;http://purl.obolibrary.org/obo/&lt;/div&gt;&lt;div&gt;&lt;b&gt;xsd:&amp;nbsp;&lt;/b&gt;http://www.w3.org/2001/XMLSchema#&lt;br&gt;&lt;/div&gt;&lt;div&gt;&lt;b&gt;schema:&lt;/b&gt;&amp;nbsp;&lt;span&gt;https://schema.org/&lt;/span&gt;&lt;br&gt;&lt;/div&gt;&lt;div&gt;&lt;b&gt;rdf: &lt;/b&gt;http://www.w3.org/1999/02/22-rdf-syntax-ns#&lt;b&gt;&lt;/b&gt;&lt;/div&gt;" style="shape=note;whiteSpace=wrap;html=1;backgroundOutline=1;darkOpacity=0.05;align=center;" vertex="1" parent="SLhK5RNujh2QTGwtFG9k-1">
                    <mxGeometry x="-390" y="-390" width="358.5" height="180" as="geometry"/>
                </mxCell>
                <mxCell id="TM-6vdGgmFQAHBn-hN1Q-2" value="" style="endArrow=classic;html=1;endSize=8;dashed=1;arcSize=0;rounded=0;entryX=1;entryY=0.5;entryDx=0;entryDy=0;exitX=0;exitY=0.5;exitDx=0;exitDy=0;edgeStyle=orthogonalEdgeStyle;" edge="1" parent="SLhK5RNujh2QTGwtFG9k-1" source="TM-6vdGgmFQAHBn-hN1Q-56" target="TM-6vdGgmFQAHBn-hN1Q-68">
                    <mxGeometry width="50" height="50" relative="1" as="geometry">
                        <mxPoint x="730" y="720" as="sourcePoint"/>
                        <mxPoint x="414" y="735" as="targetPoint"/>
                    </mxGeometry>
                </mxCell>
                <mxCell id="TM-6vdGgmFQAHBn-hN1Q-3" value="&lt;span style=&quot;font-size: 12px;&quot;&gt;phcat:hasOutput (1..n)&lt;/span&gt;" style="edgeLabel;html=1;align=center;verticalAlign=middle;resizable=0;points=[];labelBackgroundColor=#FFFFFF;" vertex="1" connectable="0" parent="TM-6vdGgmFQAHBn-hN1Q-2">
                    <mxGeometry x="-0.1912" y="-1" relative="1" as="geometry">
                        <mxPoint x="-129" y="181" as="offset"/>
                    </mxGeometry>
                </mxCell>
                <mxCell id="TM-6vdGgmFQAHBn-hN1Q-4" value="phcat:Dopant" style="rounded=0;whiteSpace=wrap;html=1;snapToPoint=1;points=[[0.1,0],[0.2,0],[0.3,0],[0.4,0],[0.5,0],[0.6,0],[0.7,0],[0.8,0],[0.9,0],[0,0.1],[0,0.3],[0,0.5],[0,0.7],[0,0.9],[0.1,1],[0.2,1],[0.3,1],[0.4,1],[0.5,1],[0.6,1],[0.7,1],[0.8,1],[0.9,1],[1,0.1],[1,0.3],[1,0.5],[1,0.7],[1,0.9]];fillColor=#dae8fc;strokeColor=#6c8ebf;" vertex="1" parent="SLhK5RNujh2QTGwtFG9k-1">
                    <mxGeometry x="270" y="380" width="100" height="30" as="geometry"/>
                </mxCell>
                <mxCell id="TM-6vdGgmFQAHBn-hN1Q-5" value="phcat:Support" style="rounded=0;whiteSpace=wrap;html=1;snapToPoint=1;points=[[0.1,0],[0.2,0],[0.3,0],[0.4,0],[0.5,0],[0.6,0],[0.7,0],[0.8,0],[0.9,0],[0,0.1],[0,0.3],[0,0.5],[0,0.7],[0,0.9],[0.1,1],[0.2,1],[0.3,1],[0.4,1],[0.5,1],[0.6,1],[0.7,1],[0.8,1],[0.9,1],[1,0.1],[1,0.3],[1,0.5],[1,0.7],[1,0.9]];fillColor=#dae8fc;strokeColor=#6c8ebf;" vertex="1" parent="SLhK5RNujh2QTGwtFG9k-1">
                    <mxGeometry x="150" y="380" width="100" height="30" as="geometry"/>
                </mxCell>
                <mxCell id="TM-6vdGgmFQAHBn-hN1Q-6" value="phcat:Dye" style="rounded=0;whiteSpace=wrap;html=1;snapToPoint=1;points=[[0.1,0],[0.2,0],[0.3,0],[0.4,0],[0.5,0],[0.6,0],[0.7,0],[0.8,0],[0.9,0],[0,0.1],[0,0.3],[0,0.5],[0,0.7],[0,0.9],[0.1,1],[0.2,1],[0.3,1],[0.4,1],[0.5,1],[0.6,1],[0.7,1],[0.8,1],[0.9,1],[1,0.1],[1,0.3],[1,0.5],[1,0.7],[1,0.9]];fillColor=#dae8fc;strokeColor=#6c8ebf;" vertex="1" parent="SLhK5RNujh2QTGwtFG9k-1">
                    <mxGeometry x="28.04" y="380" width="100" height="30" as="geometry"/>
                </mxCell>
                <mxCell id="TM-6vdGgmFQAHBn-hN1Q-7" value="" style="endArrow=classic;html=1;endSize=8;dashed=1;arcSize=0;rounded=0;edgeStyle=orthogonalEdgeStyle;exitX=1;exitY=0.3;exitDx=0;exitDy=0;entryX=0;entryY=0.5;entryDx=0;entryDy=0;" edge="1" parent="SLhK5RNujh2QTGwtFG9k-1" source="TM-6vdGgmFQAHBn-hN1Q-73" target="TM-6vdGgmFQAHBn-hN1Q-10">
                    <mxGeometry width="50" height="50" relative="1" as="geometry">
                        <mxPoint x="2032" y="495" as="sourcePoint"/>
                        <mxPoint x="1938" y="-119" as="targetPoint"/>
                    </mxGeometry>
                </mxCell>
                <mxCell id="TM-6vdGgmFQAHBn-hN1Q-8" value="&lt;div style=&quot;font-size: 12px;&quot;&gt;dc:creator (1..*)&lt;/div&gt;" style="edgeLabel;html=1;align=center;verticalAlign=middle;resizable=0;points=[];fontSize=12;" vertex="1" connectable="0" parent="TM-6vdGgmFQAHBn-hN1Q-7">
                    <mxGeometry x="-0.1912" y="-1" relative="1" as="geometry">
                        <mxPoint x="1" as="offset"/>
                    </mxGeometry>
                </mxCell>
                <mxCell id="TM-6vdGgmFQAHBn-hN1Q-9" value="" style="group" vertex="1" connectable="0" parent="SLhK5RNujh2QTGwtFG9k-1">
                    <mxGeometry x="1938" y="-120" width="130" height="80" as="geometry"/>
                </mxCell>
                <mxCell id="TM-6vdGgmFQAHBn-hN1Q-10" value="schema:Person" style="rounded=0;whiteSpace=wrap;html=1;snapToPoint=1;points=[[0.1,0],[0.2,0],[0.3,0],[0.4,0],[0.5,0],[0.6,0],[0.7,0],[0.8,0],[0.9,0],[0,0.1],[0,0.3],[0,0.5],[0,0.7],[0,0.9],[0.1,1],[0.2,1],[0.3,1],[0.4,1],[0.5,1],[0.6,1],[0.7,1],[0.8,1],[0.9,1],[1,0.1],[1,0.3],[1,0.5],[1,0.7],[1,0.9]];" vertex="1" parent="TM-6vdGgmFQAHBn-hN1Q-9">
                    <mxGeometry width="130" height="30" as="geometry"/>
                </mxCell>
                <mxCell id="TM-6vdGgmFQAHBn-hN1Q-11" value="schema:name&lt;br&gt;schema:email" style="rounded=0;whiteSpace=wrap;html=1;snapToPoint=1;points=[[0.1,0],[0.2,0],[0.3,0],[0.4,0],[0.5,0],[0.6,0],[0.7,0],[0.8,0],[0.9,0],[0,0.1],[0,0.3],[0,0.5],[0,0.7],[0,0.9],[0.1,1],[0.2,1],[0.3,1],[0.4,1],[0.5,1],[0.6,1],[0.7,1],[0.8,1],[0.9,1],[1,0.1],[1,0.3],[1,0.5],[1,0.7],[1,0.9]];dashed=1;" vertex="1" parent="TM-6vdGgmFQAHBn-hN1Q-9">
                    <mxGeometry y="30" width="130" height="50" as="geometry"/>
                </mxCell>
                <mxCell id="TM-6vdGgmFQAHBn-hN1Q-12" value="bibo:Journal" style="rounded=0;whiteSpace=wrap;html=1;snapToPoint=1;points=[[0.1,0],[0.2,0],[0.3,0],[0.4,0],[0.5,0],[0.6,0],[0.7,0],[0.8,0],[0.9,0],[0,0.1],[0,0.3],[0,0.5],[0,0.7],[0,0.9],[0.1,1],[0.2,1],[0.3,1],[0.4,1],[0.5,1],[0.6,1],[0.7,1],[0.8,1],[0.9,1],[1,0.1],[1,0.3],[1,0.5],[1,0.7],[1,0.9]];" vertex="1" parent="SLhK5RNujh2QTGwtFG9k-1">
                    <mxGeometry x="1345" y="-100" width="123" height="30" as="geometry"/>
                </mxCell>
                <mxCell id="TM-6vdGgmFQAHBn-hN1Q-13" value="" style="endArrow=classic;html=1;endSize=8;dashed=1;arcSize=0;rounded=0;edgeStyle=orthogonalEdgeStyle;entryX=1;entryY=0.5;entryDx=0;entryDy=0;exitX=0;exitY=0.5;exitDx=0;exitDy=0;" edge="1" parent="SLhK5RNujh2QTGwtFG9k-1" source="TM-6vdGgmFQAHBn-hN1Q-72" target="TM-6vdGgmFQAHBn-hN1Q-12">
                    <mxGeometry width="50" height="50" relative="1" as="geometry">
                        <mxPoint x="1448" as="sourcePoint"/>
                        <mxPoint x="1878.0000000000005" y="-69.99999999999977" as="targetPoint"/>
                    </mxGeometry>
                </mxCell>
                <mxCell id="TM-6vdGgmFQAHBn-hN1Q-14" value="dc:isPartOf (1..1)" style="edgeLabel;html=1;align=center;verticalAlign=middle;resizable=0;points=[];fontSize=12;" vertex="1" connectable="0" parent="TM-6vdGgmFQAHBn-hN1Q-13">
                    <mxGeometry x="-0.1912" y="-1" relative="1" as="geometry">
                        <mxPoint x="-14" y="1" as="offset"/>
                    </mxGeometry>
                </mxCell>
                <mxCell id="TM-6vdGgmFQAHBn-hN1Q-15" value="*Note: pendiente de elegir la url" style="text;html=1;align=center;verticalAlign=middle;resizable=0;points=[];autosize=1;strokeColor=none;fillColor=none;" vertex="1" parent="SLhK5RNujh2QTGwtFG9k-1">
                    <mxGeometry x="-100.00000000000001" y="-380" width="180" height="20" as="geometry"/>
                </mxCell>
                <mxCell id="TM-6vdGgmFQAHBn-hN1Q-16" value="" style="endArrow=classic;html=1;endSize=8;dashed=1;arcSize=0;rounded=0;edgeStyle=orthogonalEdgeStyle;entryX=0.7;entryY=1;entryDx=0;entryDy=0;exitX=0;exitY=0.5;exitDx=0;exitDy=0;" edge="1" parent="SLhK5RNujh2QTGwtFG9k-1" source="TM-6vdGgmFQAHBn-hN1Q-68" target="TM-6vdGgmFQAHBn-hN1Q-170">
                    <mxGeometry width="50" height="50" relative="1" as="geometry">
                        <mxPoint x="314.33000000000004" y="795.3199999999999" as="sourcePoint"/>
                        <mxPoint x="-259.9999999999999" y="1140.32" as="targetPoint"/>
                    </mxGeometry>
                </mxCell>
                <mxCell id="TM-6vdGgmFQAHBn-hN1Q-17" value="&lt;span style=&quot;font-size: 12px;&quot;&gt;phcat:hasChemical (1..1)&lt;/span&gt;" style="edgeLabel;html=1;align=center;verticalAlign=middle;resizable=0;points=[];labelBackgroundColor=#FFFFFF;fontSize=12;" vertex="1" connectable="0" parent="TM-6vdGgmFQAHBn-hN1Q-16">
                    <mxGeometry x="-0.1912" y="-1" relative="1" as="geometry">
                        <mxPoint x="-53" y="1" as="offset"/>
                    </mxGeometry>
                </mxCell>
                <mxCell id="TM-6vdGgmFQAHBn-hN1Q-18" value="" style="endArrow=classic;html=1;endSize=8;dashed=1;arcSize=0;rounded=0;fontSize=9;fontColor=#FF0000;edgeStyle=orthogonalEdgeStyle;entryX=0.5;entryY=0;entryDx=0;entryDy=0;exitX=0.5;exitY=1;exitDx=0;exitDy=0;" edge="1" parent="SLhK5RNujh2QTGwtFG9k-1" source="TM-6vdGgmFQAHBn-hN1Q-167" target="TM-6vdGgmFQAHBn-hN1Q-20">
                    <mxGeometry width="50" height="50" relative="1" as="geometry">
                        <mxPoint x="78.03499999999985" y="50" as="sourcePoint"/>
                        <mxPoint x="185.13999999999987" y="787.5" as="targetPoint"/>
                    </mxGeometry>
                </mxCell>
                <mxCell id="TM-6vdGgmFQAHBn-hN1Q-19" value="&lt;span style=&quot;font-size: 12px ; background-color: rgb(248 , 249 , 250)&quot;&gt;phcat:hasRole (1..1)&lt;/span&gt;" style="edgeLabel;html=1;align=center;verticalAlign=middle;resizable=0;points=[];fontSize=9;fontColor=#000000;strokeColor=#FF0000;" vertex="1" connectable="0" parent="TM-6vdGgmFQAHBn-hN1Q-18">
                    <mxGeometry x="-0.1912" y="-1" relative="1" as="geometry">
                        <mxPoint x="-7" y="3" as="offset"/>
                    </mxGeometry>
                </mxCell>
                <mxCell id="TM-6vdGgmFQAHBn-hN1Q-20" value="phcat:MaterialTransformationRole" style="rounded=0;whiteSpace=wrap;html=1;snapToPoint=1;points=[[0.1,0],[0.2,0],[0.3,0],[0.4,0],[0.5,0],[0.6,0],[0.7,0],[0.8,0],[0.9,0],[0,0.1],[0,0.3],[0,0.5],[0,0.7],[0,0.9],[0.1,1],[0.2,1],[0.3,1],[0.4,1],[0.5,1],[0.6,1],[0.7,1],[0.8,1],[0.9,1],[1,0.1],[1,0.3],[1,0.5],[1,0.7],[1,0.9]];fillColor=#dae8fc;strokeColor=#6c8ebf;" vertex="1" parent="SLhK5RNujh2QTGwtFG9k-1">
                    <mxGeometry x="-25.35000000000003" y="160" width="206.78" height="30" as="geometry"/>
                </mxCell>
                <mxCell id="TM-6vdGgmFQAHBn-hN1Q-21" value="" style="endArrow=open;html=1;fontColor=#000099;endFill=0;dashed=1;endSize=8;arcSize=0;rounded=0;edgeStyle=orthogonalEdgeStyle;entryX=0.5;entryY=1;entryDx=0;entryDy=0;exitX=0.5;exitY=0;exitDx=0;exitDy=0;" edge="1" parent="SLhK5RNujh2QTGwtFG9k-1" source="TM-6vdGgmFQAHBn-hN1Q-29" target="TM-6vdGgmFQAHBn-hN1Q-20">
                    <mxGeometry width="50" height="50" relative="1" as="geometry">
                        <mxPoint x="418.27999999999975" y="-127.5" as="sourcePoint"/>
                        <mxPoint x="189.7800000000002" y="17.5" as="targetPoint"/>
                        <Array as="points">
                            <mxPoint x="-70" y="270"/>
                            <mxPoint x="78" y="270"/>
                        </Array>
                    </mxGeometry>
                </mxCell>
                <mxCell id="TM-6vdGgmFQAHBn-hN1Q-22" value="&amp;lt;&amp;lt;rdf:type&amp;gt;&amp;gt;" style="text;html=1;align=center;verticalAlign=middle;resizable=0;points=[];fontColor=#000000;labelBackgroundColor=#ffffff;" vertex="1" connectable="0" parent="TM-6vdGgmFQAHBn-hN1Q-21">
                    <mxGeometry x="-0.3277" relative="1" as="geometry">
                        <mxPoint x="-10" y="54" as="offset"/>
                    </mxGeometry>
                </mxCell>
                <mxCell id="TM-6vdGgmFQAHBn-hN1Q-23" value="" style="endArrow=open;html=1;fontColor=#000099;endFill=0;dashed=1;endSize=8;arcSize=0;rounded=0;edgeStyle=orthogonalEdgeStyle;entryX=0.5;entryY=1;entryDx=0;entryDy=0;exitX=0.5;exitY=0;exitDx=0;exitDy=0;" edge="1" parent="SLhK5RNujh2QTGwtFG9k-1" source="TM-6vdGgmFQAHBn-hN1Q-6" target="TM-6vdGgmFQAHBn-hN1Q-20">
                    <mxGeometry width="50" height="50" relative="1" as="geometry">
                        <mxPoint x="280" y="205" as="sourcePoint"/>
                        <mxPoint x="151.5" y="457.5" as="targetPoint"/>
                    </mxGeometry>
                </mxCell>
                <mxCell id="TM-6vdGgmFQAHBn-hN1Q-24" value="&amp;lt;&amp;lt;rdf:type&amp;gt;&amp;gt;" style="text;html=1;align=center;verticalAlign=middle;resizable=0;points=[];fontColor=#000000;labelBackgroundColor=#ffffff;" vertex="1" connectable="0" parent="TM-6vdGgmFQAHBn-hN1Q-23">
                    <mxGeometry x="-0.3277" relative="1" as="geometry">
                        <mxPoint x="-5" as="offset"/>
                    </mxGeometry>
                </mxCell>
                <mxCell id="TM-6vdGgmFQAHBn-hN1Q-25" value="" style="endArrow=open;html=1;fontColor=#000099;endFill=0;dashed=1;endSize=8;arcSize=0;rounded=0;exitX=0.5;exitY=0;exitDx=0;exitDy=0;edgeStyle=orthogonalEdgeStyle;entryX=0.5;entryY=1;entryDx=0;entryDy=0;" edge="1" parent="SLhK5RNujh2QTGwtFG9k-1" source="TM-6vdGgmFQAHBn-hN1Q-4" target="TM-6vdGgmFQAHBn-hN1Q-20">
                    <mxGeometry width="50" height="50" relative="1" as="geometry">
                        <mxPoint x="840" y="537.5" as="sourcePoint"/>
                        <mxPoint x="78" y="200" as="targetPoint"/>
                        <Array as="points">
                            <mxPoint x="320" y="270"/>
                            <mxPoint x="78" y="270"/>
                        </Array>
                    </mxGeometry>
                </mxCell>
                <mxCell id="TM-6vdGgmFQAHBn-hN1Q-26" value="&amp;lt;&amp;lt;rdf:type&amp;gt;&amp;gt;" style="text;html=1;align=center;verticalAlign=middle;resizable=0;points=[];fontColor=#000000;labelBackgroundColor=#ffffff;" vertex="1" connectable="0" parent="TM-6vdGgmFQAHBn-hN1Q-25">
                    <mxGeometry x="-0.3277" relative="1" as="geometry">
                        <mxPoint x="33" y="50" as="offset"/>
                    </mxGeometry>
                </mxCell>
                <mxCell id="TM-6vdGgmFQAHBn-hN1Q-27" value="" style="endArrow=classic;html=1;endSize=8;dashed=1;arcSize=0;rounded=0;edgeStyle=orthogonalEdgeStyle;entryX=0.7;entryY=0;entryDx=0;entryDy=0;exitX=0;exitY=0.5;exitDx=0;exitDy=0;" edge="1" parent="SLhK5RNujh2QTGwtFG9k-1" source="TM-6vdGgmFQAHBn-hN1Q-166" target="TM-6vdGgmFQAHBn-hN1Q-169">
                    <mxGeometry width="50" height="50" relative="1" as="geometry">
                        <mxPoint x="-39.940000000000055" y="-15" as="sourcePoint"/>
                        <mxPoint x="-7.3284671532846914" y="447.5" as="targetPoint"/>
                    </mxGeometry>
                </mxCell>
                <mxCell id="TM-6vdGgmFQAHBn-hN1Q-28" value="&lt;span style=&quot;font-size: 12px;&quot;&gt;phcat:hasChemical (1..1)&lt;/span&gt;" style="edgeLabel;html=1;align=center;verticalAlign=middle;resizable=0;points=[];labelBackgroundColor=#FFFFFF;" vertex="1" connectable="0" parent="TM-6vdGgmFQAHBn-hN1Q-27">
                    <mxGeometry x="-0.1912" y="-1" relative="1" as="geometry">
                        <mxPoint x="-53" y="1" as="offset"/>
                    </mxGeometry>
                </mxCell>
                <mxCell id="TM-6vdGgmFQAHBn-hN1Q-29" value="phcat:Co-catalyst" style="rounded=0;whiteSpace=wrap;html=1;snapToPoint=1;points=[[0.1,0],[0.2,0],[0.3,0],[0.4,0],[0.5,0],[0.6,0],[0.7,0],[0.8,0],[0.9,0],[0,0.1],[0,0.3],[0,0.5],[0,0.7],[0,0.9],[0.1,1],[0.2,1],[0.3,1],[0.4,1],[0.5,1],[0.6,1],[0.7,1],[0.8,1],[0.9,1],[1,0.1],[1,0.3],[1,0.5],[1,0.7],[1,0.9]];fillColor=#dae8fc;strokeColor=#6c8ebf;" vertex="1" parent="SLhK5RNujh2QTGwtFG9k-1">
                    <mxGeometry x="-130" y="380" width="140" height="30" as="geometry"/>
                </mxCell>
                <mxCell id="TM-6vdGgmFQAHBn-hN1Q-30" value="" style="endArrow=open;html=1;fontColor=#000099;endFill=0;dashed=1;endSize=8;arcSize=0;rounded=0;entryX=0.5;entryY=1;entryDx=0;entryDy=0;exitX=0.5;exitY=0;exitDx=0;exitDy=0;edgeStyle=orthogonalEdgeStyle;" edge="1" parent="SLhK5RNujh2QTGwtFG9k-1" source="TM-6vdGgmFQAHBn-hN1Q-5" target="TM-6vdGgmFQAHBn-hN1Q-20">
                    <mxGeometry width="50" height="50" relative="1" as="geometry">
                        <mxPoint x="291.3899999999999" y="55" as="sourcePoint"/>
                        <mxPoint x="173.2420000000002" y="180" as="targetPoint"/>
                        <Array as="points">
                            <mxPoint x="211" y="270"/>
                            <mxPoint x="78" y="270"/>
                        </Array>
                    </mxGeometry>
                </mxCell>
                <mxCell id="TM-6vdGgmFQAHBn-hN1Q-31" value="&amp;lt;&amp;lt;rdf:type&amp;gt;&amp;gt;" style="text;html=1;align=center;verticalAlign=middle;resizable=0;points=[];fontColor=#000000;labelBackgroundColor=#ffffff;" vertex="1" connectable="0" parent="TM-6vdGgmFQAHBn-hN1Q-30">
                    <mxGeometry x="-0.3277" relative="1" as="geometry">
                        <mxPoint y="45" as="offset"/>
                    </mxGeometry>
                </mxCell>
                <mxCell id="TM-6vdGgmFQAHBn-hN1Q-32" value="phcat:Eg" style="rounded=0;whiteSpace=wrap;html=1;snapToPoint=1;points=[[0.1,0],[0.2,0],[0.3,0],[0.4,0],[0.5,0],[0.6,0],[0.7,0],[0.8,0],[0.9,0],[0,0.1],[0,0.3],[0,0.5],[0,0.7],[0,0.9],[0.1,1],[0.2,1],[0.3,1],[0.4,1],[0.5,1],[0.6,1],[0.7,1],[0.8,1],[0.9,1],[1,0.1],[1,0.3],[1,0.5],[1,0.7],[1,0.9]];fillColor=#dae8fc;strokeColor=#6c8ebf;" vertex="1" parent="SLhK5RNujh2QTGwtFG9k-1">
                    <mxGeometry x="925.0000000000001" y="920" width="140" height="30" as="geometry"/>
                </mxCell>
                <mxCell id="TM-6vdGgmFQAHBn-hN1Q-33" value="phcat:BET" style="rounded=0;whiteSpace=wrap;html=1;snapToPoint=1;points=[[0.1,0],[0.2,0],[0.3,0],[0.4,0],[0.5,0],[0.6,0],[0.7,0],[0.8,0],[0.9,0],[0,0.1],[0,0.3],[0,0.5],[0,0.7],[0,0.9],[0.1,1],[0.2,1],[0.3,1],[0.4,1],[0.5,1],[0.6,1],[0.7,1],[0.8,1],[0.9,1],[1,0.1],[1,0.3],[1,0.5],[1,0.7],[1,0.9]];fillColor=#dae8fc;strokeColor=#6c8ebf;" vertex="1" parent="SLhK5RNujh2QTGwtFG9k-1">
                    <mxGeometry x="1110.0000000000005" y="920" width="140" height="30" as="geometry"/>
                </mxCell>
                <mxCell id="TM-6vdGgmFQAHBn-hN1Q-34" value="phcat:Catalyst" style="rounded=0;whiteSpace=wrap;html=1;snapToPoint=1;points=[[0.1,0],[0.2,0],[0.3,0],[0.4,0],[0.5,0],[0.6,0],[0.7,0],[0.8,0],[0.9,0],[0,0.1],[0,0.3],[0,0.5],[0,0.7],[0,0.9],[0.1,1],[0.2,1],[0.3,1],[0.4,1],[0.5,1],[0.6,1],[0.7,1],[0.8,1],[0.9,1],[1,0.1],[1,0.3],[1,0.5],[1,0.7],[1,0.9]];fillColor=#dae8fc;strokeColor=#6c8ebf;" vertex="1" parent="SLhK5RNujh2QTGwtFG9k-1">
                    <mxGeometry x="-290" y="380" width="140" height="30" as="geometry"/>
                </mxCell>
                <mxCell id="TM-6vdGgmFQAHBn-hN1Q-35" value="schema:Country" style="rounded=0;whiteSpace=wrap;html=1;snapToPoint=1;points=[[0.1,0],[0.2,0],[0.3,0],[0.4,0],[0.5,0],[0.6,0],[0.7,0],[0.8,0],[0.9,0],[0,0.1],[0,0.3],[0,0.5],[0,0.7],[0,0.9],[0.1,1],[0.2,1],[0.3,1],[0.4,1],[0.5,1],[0.6,1],[0.7,1],[0.8,1],[0.9,1],[1,0.1],[1,0.3],[1,0.5],[1,0.7],[1,0.9]];" vertex="1" parent="SLhK5RNujh2QTGwtFG9k-1">
                    <mxGeometry x="1938" y="60" width="130" height="30" as="geometry"/>
                </mxCell>
                <mxCell id="TM-6vdGgmFQAHBn-hN1Q-36" value="" style="endArrow=classic;html=1;endSize=8;dashed=1;arcSize=0;rounded=0;exitX=0.5;exitY=1;exitDx=0;exitDy=0;entryX=0.5;entryY=0;entryDx=0;entryDy=0;edgeStyle=orthogonalEdgeStyle;" edge="1" parent="SLhK5RNujh2QTGwtFG9k-1" source="TM-6vdGgmFQAHBn-hN1Q-11" target="TM-6vdGgmFQAHBn-hN1Q-35">
                    <mxGeometry width="50" height="50" relative="1" as="geometry">
                        <mxPoint x="1778" y="-74" as="sourcePoint"/>
                        <mxPoint x="1898" y="-70" as="targetPoint"/>
                    </mxGeometry>
                </mxCell>
                <mxCell id="TM-6vdGgmFQAHBn-hN1Q-37" value="&lt;div style=&quot;font-size: 12px&quot;&gt;schema:nationality (0..1)&lt;/div&gt;" style="edgeLabel;html=1;align=center;verticalAlign=middle;resizable=0;points=[];fontSize=12;" vertex="1" connectable="0" parent="TM-6vdGgmFQAHBn-hN1Q-36">
                    <mxGeometry x="-0.1912" y="-1" relative="1" as="geometry">
                        <mxPoint x="1" as="offset"/>
                    </mxGeometry>
                </mxCell>
                <mxCell id="TM-6vdGgmFQAHBn-hN1Q-38" value="dc:title" style="rounded=0;whiteSpace=wrap;html=1;snapToPoint=1;points=[[0.1,0],[0.2,0],[0.3,0],[0.4,0],[0.5,0],[0.6,0],[0.7,0],[0.8,0],[0.9,0],[0,0.1],[0,0.3],[0,0.5],[0,0.7],[0,0.9],[0.1,1],[0.2,1],[0.3,1],[0.4,1],[0.5,1],[0.6,1],[0.7,1],[0.8,1],[0.9,1],[1,0.1],[1,0.3],[1,0.5],[1,0.7],[1,0.9]];dashed=1;" vertex="1" parent="SLhK5RNujh2QTGwtFG9k-1">
                    <mxGeometry x="1345" y="-70" width="123" height="30" as="geometry"/>
                </mxCell>
                <mxCell id="TM-6vdGgmFQAHBn-hN1Q-39" value="phcat:OutputQuantity" style="rounded=0;whiteSpace=wrap;html=1;snapToPoint=1;points=[[0.1,0],[0.2,0],[0.3,0],[0.4,0],[0.5,0],[0.6,0],[0.7,0],[0.8,0],[0.9,0],[0,0.1],[0,0.3],[0,0.5],[0,0.7],[0,0.9],[0.1,1],[0.2,1],[0.3,1],[0.4,1],[0.5,1],[0.6,1],[0.7,1],[0.8,1],[0.9,1],[1,0.1],[1,0.3],[1,0.5],[1,0.7],[1,0.9]];fillColor=#dae8fc;strokeColor=#6c8ebf;" vertex="1" parent="SLhK5RNujh2QTGwtFG9k-1">
                    <mxGeometry x="-26.57" y="893" width="163.14" height="30" as="geometry"/>
                </mxCell>
                <mxCell id="TM-6vdGgmFQAHBn-hN1Q-40" style="edgeStyle=orthogonalEdgeStyle;rounded=0;orthogonalLoop=1;jettySize=auto;html=1;exitX=0.5;exitY=1;exitDx=0;exitDy=0;entryX=0.5;entryY=0;entryDx=0;entryDy=0;dashed=1;endSize=8;" edge="1" parent="SLhK5RNujh2QTGwtFG9k-1" source="TM-6vdGgmFQAHBn-hN1Q-68" target="TM-6vdGgmFQAHBn-hN1Q-39">
                    <mxGeometry relative="1" as="geometry"/>
                </mxCell>
                <mxCell id="TM-6vdGgmFQAHBn-hN1Q-41" value="phcat:hasOutputCuantity (1..1)" style="edgeLabel;html=1;align=center;verticalAlign=middle;resizable=0;points=[];fontSize=12;" vertex="1" connectable="0" parent="TM-6vdGgmFQAHBn-hN1Q-40">
                    <mxGeometry x="-0.2748" y="-1" relative="1" as="geometry">
                        <mxPoint x="1" y="9" as="offset"/>
                    </mxGeometry>
                </mxCell>
                <mxCell id="TM-6vdGgmFQAHBn-hN1Q-42" value="phcat:Liquid" style="rounded=0;whiteSpace=wrap;html=1;snapToPoint=1;points=[[0.1,0],[0.2,0],[0.3,0],[0.4,0],[0.5,0],[0.6,0],[0.7,0],[0.8,0],[0.9,0],[0,0.1],[0,0.3],[0,0.5],[0,0.7],[0,0.9],[0.1,1],[0.2,1],[0.3,1],[0.4,1],[0.5,1],[0.6,1],[0.7,1],[0.8,1],[0.9,1],[1,0.1],[1,0.3],[1,0.5],[1,0.7],[1,0.9]];fillColor=#dae8fc;strokeColor=#6c8ebf;" vertex="1" parent="SLhK5RNujh2QTGwtFG9k-1">
                    <mxGeometry x="759.2200000000005" y="1090" width="136.5" height="30" as="geometry"/>
                </mxCell>
                <mxCell id="TM-6vdGgmFQAHBn-hN1Q-43" value="phcat:Gas" style="rounded=0;whiteSpace=wrap;html=1;snapToPoint=1;points=[[0.1,0],[0.2,0],[0.3,0],[0.4,0],[0.5,0],[0.6,0],[0.7,0],[0.8,0],[0.9,0],[0,0.1],[0,0.3],[0,0.5],[0,0.7],[0,0.9],[0.1,1],[0.2,1],[0.3,1],[0.4,1],[0.5,1],[0.6,1],[0.7,1],[0.8,1],[0.9,1],[1,0.1],[1,0.3],[1,0.5],[1,0.7],[1,0.9]];fillColor=#dae8fc;strokeColor=#6c8ebf;" vertex="1" parent="SLhK5RNujh2QTGwtFG9k-1">
                    <mxGeometry x="555.7200000000005" y="1090" width="136.5" height="30" as="geometry"/>
                </mxCell>
                <mxCell id="TM-6vdGgmFQAHBn-hN1Q-44" value="" style="endArrow=open;html=1;fontColor=#000099;endFill=0;dashed=1;endSize=8;arcSize=0;rounded=0;entryX=0.3;entryY=1;entryDx=0;entryDy=0;exitX=0.5;exitY=0;exitDx=0;exitDy=0;edgeStyle=orthogonalEdgeStyle;" edge="1" parent="SLhK5RNujh2QTGwtFG9k-1" source="TM-6vdGgmFQAHBn-hN1Q-43" target="TM-6vdGgmFQAHBn-hN1Q-53">
                    <mxGeometry width="50" height="50" relative="1" as="geometry">
                        <mxPoint x="919.7200000000005" y="850" as="sourcePoint"/>
                        <mxPoint x="919.9700000000005" y="960" as="targetPoint"/>
                    </mxGeometry>
                </mxCell>
                <mxCell id="TM-6vdGgmFQAHBn-hN1Q-45" value="&amp;lt;&amp;lt;rdf:type&amp;gt;&amp;gt;" style="text;html=1;align=center;verticalAlign=middle;resizable=0;points=[];fontColor=#000000;labelBackgroundColor=#ffffff;" vertex="1" connectable="0" parent="TM-6vdGgmFQAHBn-hN1Q-44">
                    <mxGeometry x="-0.3277" relative="1" as="geometry">
                        <mxPoint x="-5" as="offset"/>
                    </mxGeometry>
                </mxCell>
                <mxCell id="TM-6vdGgmFQAHBn-hN1Q-46" value="" style="endArrow=open;html=1;fontColor=#000099;endFill=0;dashed=1;endSize=8;arcSize=0;rounded=0;entryX=0.7;entryY=1;entryDx=0;entryDy=0;exitX=0.5;exitY=0;exitDx=0;exitDy=0;edgeStyle=orthogonalEdgeStyle;" edge="1" parent="SLhK5RNujh2QTGwtFG9k-1" source="TM-6vdGgmFQAHBn-hN1Q-42" target="TM-6vdGgmFQAHBn-hN1Q-53">
                    <mxGeometry width="50" height="50" relative="1" as="geometry">
                        <mxPoint x="873.9700000000005" y="860" as="sourcePoint"/>
                        <mxPoint x="786.7200000000005" y="930" as="targetPoint"/>
                    </mxGeometry>
                </mxCell>
                <mxCell id="TM-6vdGgmFQAHBn-hN1Q-47" value="&amp;lt;&amp;lt;rdf:type&amp;gt;&amp;gt;" style="text;html=1;align=center;verticalAlign=middle;resizable=0;points=[];fontColor=#000000;labelBackgroundColor=#ffffff;" vertex="1" connectable="0" parent="TM-6vdGgmFQAHBn-hN1Q-46">
                    <mxGeometry x="-0.3277" relative="1" as="geometry">
                        <mxPoint x="-5" as="offset"/>
                    </mxGeometry>
                </mxCell>
                <mxCell id="TM-6vdGgmFQAHBn-hN1Q-48" value="*uno de los input &lt;b&gt;debe&lt;/b&gt; ser el catalyst" style="text;html=1;strokeColor=none;fillColor=none;align=center;verticalAlign=middle;whiteSpace=wrap;rounded=0;fontColor=#4D4D4D;fontSize=10;" vertex="1" parent="SLhK5RNujh2QTGwtFG9k-1">
                    <mxGeometry x="330" y="-50" width="220" height="30" as="geometry"/>
                </mxCell>
                <mxCell id="TM-6vdGgmFQAHBn-hN1Q-49" value="*percentage: role != Catalyst&lt;br&gt;*cristalStructure: role == Catalyst and (chemical == CHEBI:32234 or chemical formula == &quot;TiO2&quot; or chemical formula == &quot;O2Ti&quot;)" style="text;html=1;strokeColor=none;fillColor=none;align=center;verticalAlign=middle;whiteSpace=wrap;rounded=0;fontColor=#4D4D4D;fontSize=10;" vertex="1" parent="SLhK5RNujh2QTGwtFG9k-1">
                    <mxGeometry x="-79.97" y="-80" width="320" height="50" as="geometry"/>
                </mxCell>
                <mxCell id="TM-6vdGgmFQAHBn-hN1Q-50" value="*las unidades pueden ser: &lt;br&gt;unit:MicroMOL-PER-M2-HR, &lt;br&gt;unit:MicroMOL-PER-GM o &lt;br&gt;unit:MicroMOL-PER-GM-HR" style="text;html=1;strokeColor=none;fillColor=none;align=center;verticalAlign=middle;whiteSpace=wrap;rounded=0;fontColor=#4D4D4D;fontSize=10;" vertex="1" parent="SLhK5RNujh2QTGwtFG9k-1">
                    <mxGeometry x="100.00000000000001" y="1340" width="148.39" height="30" as="geometry"/>
                </mxCell>
                <mxCell id="TM-6vdGgmFQAHBn-hN1Q-51" value="*Note: the real name of the class is CHEBI:24431. CHEBI:24431 is the class ID for chemical entity class" style="text;html=1;strokeColor=none;fillColor=none;align=center;verticalAlign=middle;whiteSpace=wrap;rounded=0;fontColor=#4D4D4D;fontSize=10;" vertex="1" parent="SLhK5RNujh2QTGwtFG9k-1">
                    <mxGeometry x="-560" y="460" width="150" height="66.26" as="geometry"/>
                </mxCell>
                <mxCell id="TM-6vdGgmFQAHBn-hN1Q-52" value="phcat:ReactionMedium" style="rounded=0;whiteSpace=wrap;html=1;snapToPoint=1;points=[[0.1,0],[0.2,0],[0.3,0],[0.4,0],[0.5,0],[0.6,0],[0.7,0],[0.8,0],[0.9,0],[0,0.1],[0,0.3],[0,0.5],[0,0.7],[0,0.9],[0.1,1],[0.2,1],[0.3,1],[0.4,1],[0.5,1],[0.6,1],[0.7,1],[0.8,1],[0.9,1],[1,0.1],[1,0.3],[1,0.5],[1,0.7],[1,0.9]];fillColor=#dae8fc;strokeColor=#6c8ebf;" vertex="1" parent="SLhK5RNujh2QTGwtFG9k-1">
                    <mxGeometry x="615.7200000000005" y="920" width="230" height="30" as="geometry"/>
                </mxCell>
                <mxCell id="TM-6vdGgmFQAHBn-hN1Q-53" value="phcat:pH: Double" style="rounded=0;whiteSpace=wrap;html=1;snapToPoint=1;points=[[0.1,0],[0.2,0],[0.3,0],[0.4,0],[0.5,0],[0.6,0],[0.7,0],[0.8,0],[0.9,0],[0,0.1],[0,0.3],[0,0.5],[0,0.7],[0,0.9],[0.1,1],[0.2,1],[0.3,1],[0.4,1],[0.5,1],[0.6,1],[0.7,1],[0.8,1],[0.9,1],[1,0.1],[1,0.3],[1,0.5],[1,0.7],[1,0.9]];dashed=1;" vertex="1" parent="SLhK5RNujh2QTGwtFG9k-1">
                    <mxGeometry x="615.7200000000003" y="950" width="230" height="30" as="geometry"/>
                </mxCell>
                <mxCell id="TM-6vdGgmFQAHBn-hN1Q-54" value="*pH: reactionMedium == Liquid" style="text;html=1;strokeColor=none;fillColor=none;align=center;verticalAlign=middle;whiteSpace=wrap;rounded=0;fontColor=#4D4D4D;fontSize=10;" vertex="1" parent="SLhK5RNujh2QTGwtFG9k-1">
                    <mxGeometry x="735.72" y="890" width="160" height="30" as="geometry"/>
                </mxCell>
                <mxCell id="TM-6vdGgmFQAHBn-hN1Q-55" value="phcat:MaterialTransformationProcess" style="rounded=0;whiteSpace=wrap;html=1;snapToPoint=1;points=[[0.1,0],[0.2,0],[0.3,0],[0.4,0],[0.5,0],[0.6,0],[0.7,0],[0.8,0],[0.9,0],[0,0.1],[0,0.3],[0,0.5],[0,0.7],[0,0.9],[0.1,1],[0.2,1],[0.3,1],[0.4,1],[0.5,1],[0.6,1],[0.7,1],[0.8,1],[0.9,1],[1,0.1],[1,0.3],[1,0.5],[1,0.7],[1,0.9]];fillColor=#dae8fc;strokeColor=#6c8ebf;" vertex="1" parent="SLhK5RNujh2QTGwtFG9k-1">
                    <mxGeometry x="680" y="526.26" width="260" height="30" as="geometry"/>
                </mxCell>
                <mxCell id="TM-6vdGgmFQAHBn-hN1Q-56" value="rdfs:label : String&lt;br&gt;phcat:operationMode: String" style="rounded=0;whiteSpace=wrap;html=1;snapToPoint=1;points=[[0.1,0],[0.2,0],[0.3,0],[0.4,0],[0.5,0],[0.6,0],[0.7,0],[0.8,0],[0.9,0],[0,0.1],[0,0.3],[0,0.5],[0,0.7],[0,0.9],[0.1,1],[0.2,1],[0.3,1],[0.4,1],[0.5,1],[0.6,1],[0.7,1],[0.8,1],[0.9,1],[1,0.1],[1,0.3],[1,0.5],[1,0.7],[1,0.9]];dashed=1;" vertex="1" parent="SLhK5RNujh2QTGwtFG9k-1">
                    <mxGeometry x="680" y="556.26" width="260" height="43.74" as="geometry"/>
                </mxCell>
                <mxCell id="TM-6vdGgmFQAHBn-hN1Q-57" value="" style="endArrow=classic;html=1;endSize=8;dashed=1;arcSize=0;rounded=0;fontSize=9;fontColor=#FF0000;entryX=1;entryY=0.5;entryDx=0;entryDy=0;exitX=0;exitY=0.5;exitDx=0;exitDy=0;edgeStyle=orthogonalEdgeStyle;" edge="1" parent="SLhK5RNujh2QTGwtFG9k-1" source="TM-6vdGgmFQAHBn-hN1Q-55" target="TM-6vdGgmFQAHBn-hN1Q-166">
                    <mxGeometry width="50" height="50" relative="1" as="geometry">
                        <mxPoint x="660" y="540" as="sourcePoint"/>
                        <mxPoint x="196.01029501162202" y="-15" as="targetPoint"/>
                        <Array as="points">
                            <mxPoint x="470" y="541"/>
                            <mxPoint x="470" y="-15"/>
                        </Array>
                    </mxGeometry>
                </mxCell>
                <mxCell id="TM-6vdGgmFQAHBn-hN1Q-58" value="&lt;span style=&quot;font-size: 12px ; background-color: rgb(248 , 249 , 250)&quot;&gt;phcat:hasInput (1..n)&lt;/span&gt;" style="edgeLabel;html=1;align=center;verticalAlign=middle;resizable=0;points=[];fontSize=9;fontColor=#000000;strokeColor=#FF0000;" vertex="1" connectable="0" parent="TM-6vdGgmFQAHBn-hN1Q-57">
                    <mxGeometry x="-0.1912" y="-1" relative="1" as="geometry">
                        <mxPoint x="-51" y="-346" as="offset"/>
                    </mxGeometry>
                </mxCell>
                <mxCell id="TM-6vdGgmFQAHBn-hN1Q-59" value="" style="endArrow=classic;html=1;endSize=8;dashed=1;arcSize=0;rounded=0;fontSize=9;fontColor=#FF0000;exitX=0.2;exitY=0;exitDx=0;exitDy=0;entryX=0.3;entryY=1;entryDx=0;entryDy=0;edgeStyle=orthogonalEdgeStyle;" edge="1" parent="SLhK5RNujh2QTGwtFG9k-1" source="TM-6vdGgmFQAHBn-hN1Q-55" target="TM-6vdGgmFQAHBn-hN1Q-73">
                    <mxGeometry width="50" height="50" relative="1" as="geometry">
                        <mxPoint x="690.0000000000005" y="551.2600000000002" as="sourcePoint"/>
                        <mxPoint x="840" y="-10" as="targetPoint"/>
                        <Array as="points">
                            <mxPoint x="732" y="210"/>
                            <mxPoint x="1654" y="210"/>
                        </Array>
                    </mxGeometry>
                </mxCell>
                <mxCell id="TM-6vdGgmFQAHBn-hN1Q-60" value="&lt;span style=&quot;font-size: 12px ; background-color: rgb(248 , 249 , 250)&quot;&gt;phcat:reportedIn (1..1)&lt;/span&gt;" style="edgeLabel;html=1;align=center;verticalAlign=middle;resizable=0;points=[];fontSize=9;fontColor=#000000;strokeColor=#FF0000;" vertex="1" connectable="0" parent="TM-6vdGgmFQAHBn-hN1Q-59">
                    <mxGeometry x="-0.1912" y="-1" relative="1" as="geometry">
                        <mxPoint x="-130" y="1" as="offset"/>
                    </mxGeometry>
                </mxCell>
                <mxCell id="TM-6vdGgmFQAHBn-hN1Q-61" value="" style="endArrow=classic;html=1;endSize=8;dashed=1;arcSize=0;rounded=0;fontSize=9;fontColor=#FF0000;exitX=0.5;exitY=1;exitDx=0;exitDy=0;entryX=0.3;entryY=0;entryDx=0;entryDy=0;edgeStyle=orthogonalEdgeStyle;" edge="1" parent="SLhK5RNujh2QTGwtFG9k-1" source="TM-6vdGgmFQAHBn-hN1Q-73" target="TM-6vdGgmFQAHBn-hN1Q-55">
                    <mxGeometry width="50" height="50" relative="1" as="geometry">
                        <mxPoint x="1131.0000000000005" y="740.6300000000002" as="sourcePoint"/>
                        <mxPoint x="1130" y="-170.63" as="targetPoint"/>
                    </mxGeometry>
                </mxCell>
                <mxCell id="TM-6vdGgmFQAHBn-hN1Q-62" value="&lt;span style=&quot;font-size: 12px;&quot;&gt;phcat:hasMaterialTransformationProcess (1..n)&lt;/span&gt;" style="edgeLabel;html=1;align=center;verticalAlign=middle;resizable=0;points=[];fontSize=9;fontColor=#000000;strokeColor=#FF0000;" vertex="1" connectable="0" parent="TM-6vdGgmFQAHBn-hN1Q-61">
                    <mxGeometry x="-0.1912" y="-1" relative="1" as="geometry">
                        <mxPoint x="47" y="8" as="offset"/>
                    </mxGeometry>
                </mxCell>
                <mxCell id="TM-6vdGgmFQAHBn-hN1Q-63" value="" style="endArrow=classic;html=1;endSize=8;dashed=1;arcSize=0;rounded=0;exitX=1;exitY=0.5;exitDx=0;exitDy=0;entryX=0;entryY=0.5;entryDx=0;entryDy=0;edgeStyle=orthogonalEdgeStyle;fontStyle=1" edge="1" parent="SLhK5RNujh2QTGwtFG9k-1" source="TM-6vdGgmFQAHBn-hN1Q-55" target="TM-6vdGgmFQAHBn-hN1Q-65">
                    <mxGeometry width="50" height="50" relative="1" as="geometry">
                        <mxPoint x="1070" y="195" as="sourcePoint"/>
                        <mxPoint x="1470" y="375" as="targetPoint"/>
                    </mxGeometry>
                </mxCell>
                <mxCell id="TM-6vdGgmFQAHBn-hN1Q-64" value="&lt;span style=&quot;font-size: 12px;&quot;&gt;phcat:hasCondition (0..n)&lt;/span&gt;" style="edgeLabel;html=1;align=center;verticalAlign=middle;resizable=0;points=[];labelBackgroundColor=#FFFFFF;" vertex="1" connectable="0" parent="TM-6vdGgmFQAHBn-hN1Q-63">
                    <mxGeometry x="-0.1912" y="-1" relative="1" as="geometry">
                        <mxPoint x="19" y="-1" as="offset"/>
                    </mxGeometry>
                </mxCell>
                <mxCell id="TM-6vdGgmFQAHBn-hN1Q-65" value="phcat:Condition" style="rounded=0;whiteSpace=wrap;html=1;snapToPoint=1;points=[[0.1,0],[0.2,0],[0.3,0],[0.4,0],[0.5,0],[0.6,0],[0.7,0],[0.8,0],[0.9,0],[0,0.1],[0,0.3],[0,0.5],[0,0.7],[0,0.9],[0.1,1],[0.2,1],[0.3,1],[0.4,1],[0.5,1],[0.6,1],[0.7,1],[0.8,1],[0.9,1],[1,0.1],[1,0.3],[1,0.5],[1,0.7],[1,0.9]];fillColor=#dae8fc;strokeColor=#6c8ebf;" vertex="1" parent="SLhK5RNujh2QTGwtFG9k-1">
                    <mxGeometry x="2613.61" y="526.26" width="210" height="30" as="geometry"/>
                </mxCell>
                <mxCell id="TM-6vdGgmFQAHBn-hN1Q-66" value="phcat:conditionType : String&lt;br&gt;qudt:value" style="rounded=0;whiteSpace=wrap;html=1;snapToPoint=1;points=[[0.1,0],[0.2,0],[0.3,0],[0.4,0],[0.5,0],[0.6,0],[0.7,0],[0.8,0],[0.9,0],[0,0.1],[0,0.3],[0,0.5],[0,0.7],[0,0.9],[0.1,1],[0.2,1],[0.3,1],[0.4,1],[0.5,1],[0.6,1],[0.7,1],[0.8,1],[0.9,1],[1,0.1],[1,0.3],[1,0.5],[1,0.7],[1,0.9]];dashed=1;" vertex="1" parent="SLhK5RNujh2QTGwtFG9k-1">
                    <mxGeometry x="2613.61" y="556.26" width="210" height="43.74" as="geometry"/>
                </mxCell>
                <mxCell id="TM-6vdGgmFQAHBn-hN1Q-67" value="" style="group;fillColor=#dae8fc;strokeColor=#6c8ebf;" vertex="1" connectable="0" parent="SLhK5RNujh2QTGwtFG9k-1">
                    <mxGeometry x="-39.99999999999994" y="770" width="190" height="30" as="geometry"/>
                </mxCell>
                <mxCell id="TM-6vdGgmFQAHBn-hN1Q-68" value="phcat:Output" style="rounded=0;whiteSpace=wrap;html=1;snapToPoint=1;points=[[0.1,0],[0.2,0],[0.3,0],[0.4,0],[0.5,0],[0.6,0],[0.7,0],[0.8,0],[0.9,0],[0,0.1],[0,0.3],[0,0.5],[0,0.7],[0,0.9],[0.1,1],[0.2,1],[0.3,1],[0.4,1],[0.5,1],[0.6,1],[0.7,1],[0.8,1],[0.9,1],[1,0.1],[1,0.3],[1,0.5],[1,0.7],[1,0.9]];fontSize=12;fillColor=#dae8fc;strokeColor=#6c8ebf;" vertex="1" parent="TM-6vdGgmFQAHBn-hN1Q-67">
                    <mxGeometry width="190" height="30" as="geometry"/>
                </mxCell>
                <mxCell id="TM-6vdGgmFQAHBn-hN1Q-69" value="phcat:ReactorCondition" style="rounded=0;whiteSpace=wrap;html=1;snapToPoint=1;points=[[0.1,0],[0.2,0],[0.3,0],[0.4,0],[0.5,0],[0.6,0],[0.7,0],[0.8,0],[0.9,0],[0,0.1],[0,0.3],[0,0.5],[0,0.7],[0,0.9],[0.1,1],[0.2,1],[0.3,1],[0.4,1],[0.5,1],[0.6,1],[0.7,1],[0.8,1],[0.9,1],[1,0.1],[1,0.3],[1,0.5],[1,0.7],[1,0.9]];fillColor=#dae8fc;strokeColor=#6c8ebf;" vertex="1" parent="SLhK5RNujh2QTGwtFG9k-1">
                    <mxGeometry x="1722.61" y="823" width="179.9206349206349" height="30" as="geometry"/>
                </mxCell>
                <mxCell id="TM-6vdGgmFQAHBn-hN1Q-70" value="phcat:reactorType : String&lt;br&gt;qudt:numericValue" style="rounded=0;whiteSpace=wrap;html=1;snapToPoint=1;points=[[0.1,0],[0.2,0],[0.3,0],[0.4,0],[0.5,0],[0.6,0],[0.7,0],[0.8,0],[0.9,0],[0,0.1],[0,0.3],[0,0.5],[0,0.7],[0,0.9],[0.1,1],[0.2,1],[0.3,1],[0.4,1],[0.5,1],[0.6,1],[0.7,1],[0.8,1],[0.9,1],[1,0.1],[1,0.3],[1,0.5],[1,0.7],[1,0.9]];dashed=1;" vertex="1" parent="SLhK5RNujh2QTGwtFG9k-1">
                    <mxGeometry x="1722.61" y="853" width="179.92" height="47" as="geometry"/>
                </mxCell>
                <mxCell id="TM-6vdGgmFQAHBn-hN1Q-71" value="" style="group" vertex="1" connectable="0" parent="SLhK5RNujh2QTGwtFG9k-1">
                    <mxGeometry x="1618" y="-170" width="120" height="150" as="geometry"/>
                </mxCell>
                <mxCell id="TM-6vdGgmFQAHBn-hN1Q-72" value="bibo:Article" style="rounded=0;whiteSpace=wrap;html=1;snapToPoint=1;points=[[0.1,0],[0.2,0],[0.3,0],[0.4,0],[0.5,0],[0.6,0],[0.7,0],[0.8,0],[0.9,0],[0,0.1],[0,0.3],[0,0.5],[0,0.7],[0,0.9],[0.1,1],[0.2,1],[0.3,1],[0.4,1],[0.5,1],[0.6,1],[0.7,1],[0.8,1],[0.9,1],[1,0.1],[1,0.3],[1,0.5],[1,0.7],[1,0.9]];" vertex="1" parent="TM-6vdGgmFQAHBn-hN1Q-71">
                    <mxGeometry width="119.2" height="30" as="geometry"/>
                </mxCell>
                <mxCell id="TM-6vdGgmFQAHBn-hN1Q-73" value="bibo:doi&amp;nbsp;&lt;br&gt;bibo:abstract&lt;br&gt;bibo:volume&lt;br&gt;dc:title&lt;br&gt;bibo:issue&lt;br&gt;dc:date&lt;br&gt;bibo:pageStart" style="rounded=0;whiteSpace=wrap;html=1;snapToPoint=1;points=[[0.1,0],[0.2,0],[0.3,0],[0.4,0],[0.5,0],[0.6,0],[0.7,0],[0.8,0],[0.9,0],[0,0.1],[0,0.3],[0,0.5],[0,0.7],[0,0.9],[0.1,1],[0.2,1],[0.3,1],[0.4,1],[0.5,1],[0.6,1],[0.7,1],[0.8,1],[0.9,1],[1,0.1],[1,0.3],[1,0.5],[1,0.7],[1,0.9]];dashed=1;" vertex="1" parent="TM-6vdGgmFQAHBn-hN1Q-71">
                    <mxGeometry y="30" width="120" height="120" as="geometry"/>
                </mxCell>
                <mxCell id="TM-6vdGgmFQAHBn-hN1Q-74" value="" style="group" vertex="1" connectable="0" parent="SLhK5RNujh2QTGwtFG9k-1">
                    <mxGeometry x="1290" y="-230" width="850" height="365" as="geometry"/>
                </mxCell>
                <mxCell id="TM-6vdGgmFQAHBn-hN1Q-75" value="" style="rounded=0;whiteSpace=wrap;html=1;fillColor=none;dashed=1;" vertex="1" parent="TM-6vdGgmFQAHBn-hN1Q-74">
                    <mxGeometry width="850" height="365" as="geometry"/>
                </mxCell>
                <mxCell id="TM-6vdGgmFQAHBn-hN1Q-76" value="bibo" style="text;html=1;strokeColor=none;fillColor=none;align=center;verticalAlign=middle;whiteSpace=wrap;rounded=0;dashed=1;" vertex="1" parent="TM-6vdGgmFQAHBn-hN1Q-74">
                    <mxGeometry width="60" height="30" as="geometry"/>
                </mxCell>
                <mxCell id="TM-6vdGgmFQAHBn-hN1Q-77" value="" style="endArrow=classic;html=1;endSize=8;dashed=1;arcSize=0;rounded=0;exitX=0.3;exitY=1;exitDx=0;exitDy=0;entryX=0.5;entryY=0;entryDx=0;entryDy=0;edgeStyle=orthogonalEdgeStyle;" edge="1" parent="SLhK5RNujh2QTGwtFG9k-1" source="TM-6vdGgmFQAHBn-hN1Q-56" target="TM-6vdGgmFQAHBn-hN1Q-52">
                    <mxGeometry width="50" height="50" relative="1" as="geometry">
                        <mxPoint x="950" y="551.2600000000002" as="sourcePoint"/>
                        <mxPoint x="1608" y="551.2600000000002" as="targetPoint"/>
                    </mxGeometry>
                </mxCell>
                <mxCell id="TM-6vdGgmFQAHBn-hN1Q-78" value="&lt;span style=&quot;font-size: 12px;&quot;&gt;phcat:hasReactionMedium (1..1)&lt;/span&gt;" style="edgeLabel;html=1;align=center;verticalAlign=middle;resizable=0;points=[];labelBackgroundColor=#FFFFFF;" vertex="1" connectable="0" parent="TM-6vdGgmFQAHBn-hN1Q-77">
                    <mxGeometry x="-0.1912" y="-1" relative="1" as="geometry">
                        <mxPoint x="-45" y="36" as="offset"/>
                    </mxGeometry>
                </mxCell>
                <mxCell id="TM-6vdGgmFQAHBn-hN1Q-79" value="qudt:numericValue" style="rounded=0;whiteSpace=wrap;html=1;snapToPoint=1;points=[[0.1,0],[0.2,0],[0.3,0],[0.4,0],[0.5,0],[0.6,0],[0.7,0],[0.8,0],[0.9,0],[0,0.1],[0,0.3],[0,0.5],[0,0.7],[0,0.9],[0.1,1],[0.2,1],[0.3,1],[0.4,1],[0.5,1],[0.6,1],[0.7,1],[0.8,1],[0.9,1],[1,0.1],[1,0.3],[1,0.5],[1,0.7],[1,0.9]];dashed=1;" vertex="1" parent="SLhK5RNujh2QTGwtFG9k-1">
                    <mxGeometry x="-26.57" y="923" width="163.14" height="27" as="geometry"/>
                </mxCell>
                <mxCell id="TM-6vdGgmFQAHBn-hN1Q-80" value="qudt:Unit" style="rounded=0;whiteSpace=wrap;html=1;snapToPoint=1;points=[[0.1,0],[0.2,0],[0.3,0],[0.4,0],[0.5,0],[0.6,0],[0.7,0],[0.8,0],[0.9,0],[0,0.1],[0,0.3],[0,0.5],[0,0.7],[0,0.9],[0.1,1],[0.2,1],[0.3,1],[0.4,1],[0.5,1],[0.6,1],[0.7,1],[0.8,1],[0.9,1],[1,0.1],[1,0.3],[1,0.5],[1,0.7],[1,0.9]];" vertex="1" parent="SLhK5RNujh2QTGwtFG9k-1">
                    <mxGeometry x="1030" y="1370" width="120" height="30" as="geometry"/>
                </mxCell>
                <mxCell id="TM-6vdGgmFQAHBn-hN1Q-81" style="edgeStyle=orthogonalEdgeStyle;rounded=0;orthogonalLoop=1;jettySize=auto;html=1;exitX=0.5;exitY=1;exitDx=0;exitDy=0;dashed=1;endSize=8;entryX=0;entryY=0.5;entryDx=0;entryDy=0;" edge="1" parent="SLhK5RNujh2QTGwtFG9k-1" source="TM-6vdGgmFQAHBn-hN1Q-79" target="TM-6vdGgmFQAHBn-hN1Q-80">
                    <mxGeometry relative="1" as="geometry">
                        <mxPoint x="48.14" y="970" as="sourcePoint"/>
                        <mxPoint x="30" y="1050" as="targetPoint"/>
                    </mxGeometry>
                </mxCell>
                <mxCell id="TM-6vdGgmFQAHBn-hN1Q-82" value="qudt:unit (1..1)" style="edgeLabel;html=1;align=center;verticalAlign=middle;resizable=0;points=[];fontSize=12;" vertex="1" connectable="0" parent="TM-6vdGgmFQAHBn-hN1Q-81">
                    <mxGeometry x="-0.2748" y="-1" relative="1" as="geometry">
                        <mxPoint x="29" y="-1" as="offset"/>
                    </mxGeometry>
                </mxCell>
                <mxCell id="TM-6vdGgmFQAHBn-hN1Q-83" value="qudt:numericValue" style="rounded=0;whiteSpace=wrap;html=1;snapToPoint=1;points=[[0.1,0],[0.2,0],[0.3,0],[0.4,0],[0.5,0],[0.6,0],[0.7,0],[0.8,0],[0.9,0],[0,0.1],[0,0.3],[0,0.5],[0,0.7],[0,0.9],[0.1,1],[0.2,1],[0.3,1],[0.4,1],[0.5,1],[0.6,1],[0.7,1],[0.8,1],[0.9,1],[1,0.1],[1,0.3],[1,0.5],[1,0.7],[1,0.9]];dashed=1;" vertex="1" parent="SLhK5RNujh2QTGwtFG9k-1">
                    <mxGeometry x="925" y="950" width="140" height="27" as="geometry"/>
                </mxCell>
                <mxCell id="TM-6vdGgmFQAHBn-hN1Q-84" value="qudt:numericValue" style="rounded=0;whiteSpace=wrap;html=1;snapToPoint=1;points=[[0.1,0],[0.2,0],[0.3,0],[0.4,0],[0.5,0],[0.6,0],[0.7,0],[0.8,0],[0.9,0],[0,0.1],[0,0.3],[0,0.5],[0,0.7],[0,0.9],[0.1,1],[0.2,1],[0.3,1],[0.4,1],[0.5,1],[0.6,1],[0.7,1],[0.8,1],[0.9,1],[1,0.1],[1,0.3],[1,0.5],[1,0.7],[1,0.9]];dashed=1;" vertex="1" parent="SLhK5RNujh2QTGwtFG9k-1">
                    <mxGeometry x="1110" y="950" width="140" height="27" as="geometry"/>
                </mxCell>
                <mxCell id="TM-6vdGgmFQAHBn-hN1Q-85" value="" style="endArrow=classic;html=1;endSize=8;dashed=1;arcSize=0;rounded=0;exitX=0.6;exitY=1;exitDx=0;exitDy=0;entryX=0.5;entryY=0;entryDx=0;entryDy=0;edgeStyle=orthogonalEdgeStyle;" edge="1" parent="SLhK5RNujh2QTGwtFG9k-1" source="TM-6vdGgmFQAHBn-hN1Q-56" target="TM-6vdGgmFQAHBn-hN1Q-32">
                    <mxGeometry width="50" height="50" relative="1" as="geometry">
                        <mxPoint x="741.9999999999995" y="610" as="sourcePoint"/>
                        <mxPoint x="695.0000000000005" y="800" as="targetPoint"/>
                        <Array as="points">
                            <mxPoint x="836" y="810"/>
                            <mxPoint x="996" y="810"/>
                        </Array>
                    </mxGeometry>
                </mxCell>
                <mxCell id="TM-6vdGgmFQAHBn-hN1Q-86" value="&lt;span style=&quot;font-size: 12px;&quot;&gt;phcat:hasReactionEg (0..1)&lt;/span&gt;" style="edgeLabel;html=1;align=center;verticalAlign=middle;resizable=0;points=[];labelBackgroundColor=#FFFFFF;" vertex="1" connectable="0" parent="TM-6vdGgmFQAHBn-hN1Q-85">
                    <mxGeometry x="-0.1912" y="-1" relative="1" as="geometry">
                        <mxPoint x="61" y="16" as="offset"/>
                    </mxGeometry>
                </mxCell>
                <mxCell id="TM-6vdGgmFQAHBn-hN1Q-87" value="" style="endArrow=classic;html=1;endSize=8;dashed=1;arcSize=0;rounded=0;exitX=0.8;exitY=1;exitDx=0;exitDy=0;entryX=0.5;entryY=0;entryDx=0;entryDy=0;edgeStyle=orthogonalEdgeStyle;" edge="1" parent="SLhK5RNujh2QTGwtFG9k-1" source="TM-6vdGgmFQAHBn-hN1Q-56" target="TM-6vdGgmFQAHBn-hN1Q-33">
                    <mxGeometry width="50" height="50" relative="1" as="geometry">
                        <mxPoint x="793.9999999999995" y="610" as="sourcePoint"/>
                        <mxPoint x="960" y="815" as="targetPoint"/>
                    </mxGeometry>
                </mxCell>
                <mxCell id="TM-6vdGgmFQAHBn-hN1Q-88" value="&lt;span style=&quot;font-size: 12px;&quot;&gt;phcat:hasBET (0..1)&lt;/span&gt;" style="edgeLabel;html=1;align=center;verticalAlign=middle;resizable=0;points=[];labelBackgroundColor=#FFFFFF;" vertex="1" connectable="0" parent="TM-6vdGgmFQAHBn-hN1Q-87">
                    <mxGeometry x="-0.1912" y="-1" relative="1" as="geometry">
                        <mxPoint x="12" y="-1" as="offset"/>
                    </mxGeometry>
                </mxCell>
                <mxCell id="TM-6vdGgmFQAHBn-hN1Q-89" value="phcat:LightSourceCondition" style="rounded=0;whiteSpace=wrap;html=1;snapToPoint=1;points=[[0.1,0],[0.2,0],[0.3,0],[0.4,0],[0.5,0],[0.6,0],[0.7,0],[0.8,0],[0.9,0],[0,0.1],[0,0.3],[0,0.5],[0,0.7],[0,0.9],[0.1,1],[0.2,1],[0.3,1],[0.4,1],[0.5,1],[0.6,1],[0.7,1],[0.8,1],[0.9,1],[1,0.1],[1,0.3],[1,0.5],[1,0.7],[1,0.9]];fillColor=#dae8fc;strokeColor=#6c8ebf;" vertex="1" parent="SLhK5RNujh2QTGwtFG9k-1">
                    <mxGeometry x="2012.61" y="823" width="210" height="30" as="geometry"/>
                </mxCell>
                <mxCell id="TM-6vdGgmFQAHBn-hN1Q-90" value="phcat:lightSourceType : String" style="rounded=0;whiteSpace=wrap;html=1;snapToPoint=1;points=[[0.1,0],[0.2,0],[0.3,0],[0.4,0],[0.5,0],[0.6,0],[0.7,0],[0.8,0],[0.9,0],[0,0.1],[0,0.3],[0,0.5],[0,0.7],[0,0.9],[0.1,1],[0.2,1],[0.3,1],[0.4,1],[0.5,1],[0.6,1],[0.7,1],[0.8,1],[0.9,1],[1,0.1],[1,0.3],[1,0.5],[1,0.7],[1,0.9]];dashed=1;" vertex="1" parent="SLhK5RNujh2QTGwtFG9k-1">
                    <mxGeometry x="2012.61" y="853" width="210" height="30" as="geometry"/>
                </mxCell>
                <mxCell id="TM-6vdGgmFQAHBn-hN1Q-91" value="phcat:LampCondition" style="rounded=0;whiteSpace=wrap;html=1;snapToPoint=1;points=[[0.1,0],[0.2,0],[0.3,0],[0.4,0],[0.5,0],[0.6,0],[0.7,0],[0.8,0],[0.9,0],[0,0.1],[0,0.3],[0,0.5],[0,0.7],[0,0.9],[0.1,1],[0.2,1],[0.3,1],[0.4,1],[0.5,1],[0.6,1],[0.7,1],[0.8,1],[0.9,1],[1,0.1],[1,0.3],[1,0.5],[1,0.7],[1,0.9]];fillColor=#dae8fc;strokeColor=#6c8ebf;" vertex="1" parent="SLhK5RNujh2QTGwtFG9k-1">
                    <mxGeometry x="2442.61" y="823" width="192" height="30" as="geometry"/>
                </mxCell>
                <mxCell id="TM-6vdGgmFQAHBn-hN1Q-92" value="phcat:lampType : String" style="rounded=0;whiteSpace=wrap;html=1;snapToPoint=1;points=[[0.1,0],[0.2,0],[0.3,0],[0.4,0],[0.5,0],[0.6,0],[0.7,0],[0.8,0],[0.9,0],[0,0.1],[0,0.3],[0,0.5],[0,0.7],[0,0.9],[0.1,1],[0.2,1],[0.3,1],[0.4,1],[0.5,1],[0.6,1],[0.7,1],[0.8,1],[0.9,1],[1,0.1],[1,0.3],[1,0.5],[1,0.7],[1,0.9]];dashed=1;" vertex="1" parent="SLhK5RNujh2QTGwtFG9k-1">
                    <mxGeometry x="2442.61" y="853" width="192" height="30" as="geometry"/>
                </mxCell>
                <mxCell id="TM-6vdGgmFQAHBn-hN1Q-93" value="" style="group;fillColor=#dae8fc;strokeColor=#6c8ebf;" vertex="1" connectable="0" parent="SLhK5RNujh2QTGwtFG9k-1">
                    <mxGeometry x="2740" y="823" width="190" height="80" as="geometry"/>
                </mxCell>
                <mxCell id="TM-6vdGgmFQAHBn-hN1Q-94" value="phcat:CatalystSetUpCondition" style="rounded=0;whiteSpace=wrap;html=1;snapToPoint=1;points=[[0.1,0],[0.2,0],[0.3,0],[0.4,0],[0.5,0],[0.6,0],[0.7,0],[0.8,0],[0.9,0],[0,0.1],[0,0.3],[0,0.5],[0,0.7],[0,0.9],[0.1,1],[0.2,1],[0.3,1],[0.4,1],[0.5,1],[0.6,1],[0.7,1],[0.8,1],[0.9,1],[1,0.1],[1,0.3],[1,0.5],[1,0.7],[1,0.9]];fillColor=#dae8fc;strokeColor=#6c8ebf;" vertex="1" parent="TM-6vdGgmFQAHBn-hN1Q-93">
                    <mxGeometry width="190" height="30" as="geometry"/>
                </mxCell>
                <mxCell id="TM-6vdGgmFQAHBn-hN1Q-95" value="phcat:setUpType : String&lt;br&gt;qudt:numericValue" style="rounded=0;whiteSpace=wrap;html=1;snapToPoint=1;points=[[0.1,0],[0.2,0],[0.3,0],[0.4,0],[0.5,0],[0.6,0],[0.7,0],[0.8,0],[0.9,0],[0,0.1],[0,0.3],[0,0.5],[0,0.7],[0,0.9],[0.1,1],[0.2,1],[0.3,1],[0.4,1],[0.5,1],[0.6,1],[0.7,1],[0.8,1],[0.9,1],[1,0.1],[1,0.3],[1,0.5],[1,0.7],[1,0.9]];dashed=1;" vertex="1" parent="TM-6vdGgmFQAHBn-hN1Q-93">
                    <mxGeometry y="30" width="190" height="50" as="geometry"/>
                </mxCell>
                <mxCell id="TM-6vdGgmFQAHBn-hN1Q-96" value="" style="endArrow=open;html=1;fontColor=#000099;endFill=0;dashed=1;endSize=8;arcSize=0;rounded=0;edgeStyle=orthogonalEdgeStyle;exitX=0.5;exitY=0;exitDx=0;exitDy=0;entryX=0.5;entryY=1;entryDx=0;entryDy=0;" edge="1" parent="SLhK5RNujh2QTGwtFG9k-1" source="TM-6vdGgmFQAHBn-hN1Q-69" target="TM-6vdGgmFQAHBn-hN1Q-66">
                    <mxGeometry width="50" height="50" relative="1" as="geometry">
                        <mxPoint x="2032.61" y="633" as="sourcePoint"/>
                        <mxPoint x="2032.859999999999" y="743" as="targetPoint"/>
                        <Array as="points"/>
                    </mxGeometry>
                </mxCell>
                <mxCell id="TM-6vdGgmFQAHBn-hN1Q-97" value="&amp;lt;&amp;lt;rdfs:subClassOf&amp;gt;&amp;gt;" style="text;html=1;align=center;verticalAlign=middle;resizable=0;points=[];fontColor=#000000;labelBackgroundColor=#ffffff;" vertex="1" connectable="0" parent="TM-6vdGgmFQAHBn-hN1Q-96">
                    <mxGeometry x="-0.3277" relative="1" as="geometry">
                        <mxPoint x="-251" y="59" as="offset"/>
                    </mxGeometry>
                </mxCell>
                <mxCell id="TM-6vdGgmFQAHBn-hN1Q-98" value="" style="endArrow=open;html=1;fontColor=#000099;endFill=0;dashed=1;endSize=8;arcSize=0;rounded=0;edgeStyle=orthogonalEdgeStyle;exitX=0.5;exitY=0;exitDx=0;exitDy=0;entryX=0.5;entryY=1;entryDx=0;entryDy=0;" edge="1" parent="SLhK5RNujh2QTGwtFG9k-1" source="TM-6vdGgmFQAHBn-hN1Q-89" target="TM-6vdGgmFQAHBn-hN1Q-66">
                    <mxGeometry width="50" height="50" relative="1" as="geometry">
                        <mxPoint x="1822.570317460317" y="833" as="sourcePoint"/>
                        <mxPoint x="2123.6099999999988" y="593" as="targetPoint"/>
                        <Array as="points"/>
                    </mxGeometry>
                </mxCell>
                <mxCell id="TM-6vdGgmFQAHBn-hN1Q-99" value="&amp;lt;&amp;lt;rdfs:subClassOf&amp;gt;&amp;gt;" style="text;html=1;align=center;verticalAlign=middle;resizable=0;points=[];fontColor=#000000;labelBackgroundColor=#ffffff;" vertex="1" connectable="0" parent="TM-6vdGgmFQAHBn-hN1Q-98">
                    <mxGeometry x="-0.3277" relative="1" as="geometry">
                        <mxPoint x="-166" y="49" as="offset"/>
                    </mxGeometry>
                </mxCell>
                <mxCell id="TM-6vdGgmFQAHBn-hN1Q-100" value="" style="endArrow=open;html=1;fontColor=#000099;endFill=0;dashed=1;endSize=8;arcSize=0;rounded=0;edgeStyle=orthogonalEdgeStyle;exitX=0.5;exitY=0;exitDx=0;exitDy=0;entryX=0.5;entryY=1;entryDx=0;entryDy=0;" edge="1" parent="SLhK5RNujh2QTGwtFG9k-1" source="TM-6vdGgmFQAHBn-hN1Q-91" target="TM-6vdGgmFQAHBn-hN1Q-66">
                    <mxGeometry width="50" height="50" relative="1" as="geometry">
                        <mxPoint x="2063.6099999999997" y="833" as="sourcePoint"/>
                        <mxPoint x="2207.61" y="593" as="targetPoint"/>
                        <Array as="points"/>
                    </mxGeometry>
                </mxCell>
                <mxCell id="TM-6vdGgmFQAHBn-hN1Q-101" value="&amp;lt;&amp;lt;rdfs:subClassOf&amp;gt;&amp;gt;" style="text;html=1;align=center;verticalAlign=middle;resizable=0;points=[];fontColor=#000000;labelBackgroundColor=#ffffff;" vertex="1" connectable="0" parent="TM-6vdGgmFQAHBn-hN1Q-100">
                    <mxGeometry x="-0.3277" relative="1" as="geometry">
                        <mxPoint x="-9" y="52" as="offset"/>
                    </mxGeometry>
                </mxCell>
                <mxCell id="TM-6vdGgmFQAHBn-hN1Q-102" value="" style="endArrow=open;html=1;fontColor=#000099;endFill=0;dashed=1;endSize=8;arcSize=0;rounded=0;edgeStyle=orthogonalEdgeStyle;exitX=0.5;exitY=0;exitDx=0;exitDy=0;entryX=0.5;entryY=1;entryDx=0;entryDy=0;" edge="1" parent="SLhK5RNujh2QTGwtFG9k-1" source="TM-6vdGgmFQAHBn-hN1Q-94" target="TM-6vdGgmFQAHBn-hN1Q-66">
                    <mxGeometry width="50" height="50" relative="1" as="geometry">
                        <mxPoint x="2306.61" y="833" as="sourcePoint"/>
                        <mxPoint x="2207.61" y="593" as="targetPoint"/>
                        <Array as="points"/>
                    </mxGeometry>
                </mxCell>
                <mxCell id="TM-6vdGgmFQAHBn-hN1Q-103" value="&amp;lt;&amp;lt;rdfs:subClassOf&amp;gt;&amp;gt;" style="text;html=1;align=center;verticalAlign=middle;resizable=0;points=[];fontColor=#000000;labelBackgroundColor=#ffffff;" vertex="1" connectable="0" parent="TM-6vdGgmFQAHBn-hN1Q-102">
                    <mxGeometry x="-0.3277" relative="1" as="geometry">
                        <mxPoint x="-3" y="59" as="offset"/>
                    </mxGeometry>
                </mxCell>
                <mxCell id="TM-6vdGgmFQAHBn-hN1Q-104" style="edgeStyle=orthogonalEdgeStyle;rounded=0;orthogonalLoop=1;jettySize=auto;html=1;dashed=1;endSize=8;entryX=1;entryY=0.5;entryDx=0;entryDy=0;exitX=0.5;exitY=1;exitDx=0;exitDy=0;" edge="1" parent="SLhK5RNujh2QTGwtFG9k-1" source="TM-6vdGgmFQAHBn-hN1Q-70" target="TM-6vdGgmFQAHBn-hN1Q-80">
                    <mxGeometry relative="1" as="geometry">
                        <mxPoint x="1460" y="960" as="sourcePoint"/>
                        <mxPoint x="2365" y="1605" as="targetPoint"/>
                    </mxGeometry>
                </mxCell>
                <mxCell id="TM-6vdGgmFQAHBn-hN1Q-105" value="qudt:unit (1..1)" style="edgeLabel;html=1;align=center;verticalAlign=middle;resizable=0;points=[];fontSize=12;" vertex="1" connectable="0" parent="TM-6vdGgmFQAHBn-hN1Q-104">
                    <mxGeometry x="-0.2748" y="-1" relative="1" as="geometry">
                        <mxPoint x="-9" y="-124" as="offset"/>
                    </mxGeometry>
                </mxCell>
                <mxCell id="TM-6vdGgmFQAHBn-hN1Q-106" style="edgeStyle=orthogonalEdgeStyle;rounded=0;orthogonalLoop=1;jettySize=auto;html=1;dashed=1;endSize=8;exitX=0.5;exitY=1;exitDx=0;exitDy=0;entryX=1;entryY=0.5;entryDx=0;entryDy=0;" edge="1" parent="SLhK5RNujh2QTGwtFG9k-1" source="TM-6vdGgmFQAHBn-hN1Q-95" target="TM-6vdGgmFQAHBn-hN1Q-80">
                    <mxGeometry relative="1" as="geometry">
                        <mxPoint x="1730.9999999999995" y="920" as="sourcePoint"/>
                        <mxPoint x="1120" y="1415" as="targetPoint"/>
                    </mxGeometry>
                </mxCell>
                <mxCell id="TM-6vdGgmFQAHBn-hN1Q-107" value="qudt:unit (1..1)" style="edgeLabel;html=1;align=center;verticalAlign=middle;resizable=0;points=[];fontSize=12;" vertex="1" connectable="0" parent="TM-6vdGgmFQAHBn-hN1Q-106">
                    <mxGeometry x="-0.2748" y="-1" relative="1" as="geometry">
                        <mxPoint x="318" y="-144" as="offset"/>
                    </mxGeometry>
                </mxCell>
                <mxCell id="TM-6vdGgmFQAHBn-hN1Q-108" value="*unit:L" style="text;html=1;strokeColor=none;fillColor=none;align=center;verticalAlign=middle;whiteSpace=wrap;rounded=0;fontColor=#4D4D4D;fontSize=10;" vertex="1" parent="SLhK5RNujh2QTGwtFG9k-1">
                    <mxGeometry x="1790" y="1183.0000000000002" width="90" height="20" as="geometry"/>
                </mxCell>
                <mxCell id="TM-6vdGgmFQAHBn-hN1Q-109" value="" style="endArrow=classic;html=1;endSize=8;dashed=1;arcSize=0;rounded=0;exitX=0.1;exitY=1;exitDx=0;exitDy=0;entryX=1;entryY=0.5;entryDx=0;entryDy=0;edgeStyle=orthogonalEdgeStyle;" edge="1" parent="SLhK5RNujh2QTGwtFG9k-1" source="TM-6vdGgmFQAHBn-hN1Q-56" target="TM-6vdGgmFQAHBn-hN1Q-169">
                    <mxGeometry width="50" height="50" relative="1" as="geometry">
                        <mxPoint x="767.9999999999995" y="610" as="sourcePoint"/>
                        <mxPoint x="480" y="935" as="targetPoint"/>
                    </mxGeometry>
                </mxCell>
                <mxCell id="TM-6vdGgmFQAHBn-hN1Q-110" value="&lt;span style=&quot;font-size: 12px;&quot;&gt;phcat:hasReductant (1..1)&lt;/span&gt;" style="edgeLabel;html=1;align=center;verticalAlign=middle;resizable=0;points=[];labelBackgroundColor=#FFFFFF;" vertex="1" connectable="0" parent="TM-6vdGgmFQAHBn-hN1Q-109">
                    <mxGeometry x="-0.1912" y="-1" relative="1" as="geometry">
                        <mxPoint x="-95" y="-39" as="offset"/>
                    </mxGeometry>
                </mxCell>
                <mxCell id="TM-6vdGgmFQAHBn-hN1Q-111" value="phcat:WavelengthCondition" style="rounded=0;whiteSpace=wrap;html=1;snapToPoint=1;points=[[0.1,0],[0.2,0],[0.3,0],[0.4,0],[0.5,0],[0.6,0],[0.7,0],[0.8,0],[0.9,0],[0,0.1],[0,0.3],[0,0.5],[0,0.7],[0,0.9],[0.1,1],[0.2,1],[0.3,1],[0.4,1],[0.5,1],[0.6,1],[0.7,1],[0.8,1],[0.9,1],[1,0.1],[1,0.3],[1,0.5],[1,0.7],[1,0.9]];fillColor=#dae8fc;strokeColor=#6c8ebf;" vertex="1" parent="SLhK5RNujh2QTGwtFG9k-1">
                    <mxGeometry x="1930" y="1023" width="177.39" height="30" as="geometry"/>
                </mxCell>
                <mxCell id="TM-6vdGgmFQAHBn-hN1Q-112" value="phcat:IluminatedAreaCondition" style="rounded=0;whiteSpace=wrap;html=1;snapToPoint=1;points=[[0.1,0],[0.2,0],[0.3,0],[0.4,0],[0.5,0],[0.6,0],[0.7,0],[0.8,0],[0.9,0],[0,0.1],[0,0.3],[0,0.5],[0,0.7],[0,0.9],[0.1,1],[0.2,1],[0.3,1],[0.4,1],[0.5,1],[0.6,1],[0.7,1],[0.8,1],[0.9,1],[1,0.1],[1,0.3],[1,0.5],[1,0.7],[1,0.9]];fillColor=#dae8fc;strokeColor=#6c8ebf;" vertex="1" parent="SLhK5RNujh2QTGwtFG9k-1">
                    <mxGeometry x="2130" y="1023" width="180" height="30" as="geometry"/>
                </mxCell>
                <mxCell id="TM-6vdGgmFQAHBn-hN1Q-113" value="" style="endArrow=open;html=1;fontColor=#000099;endFill=0;dashed=1;endSize=8;arcSize=0;rounded=0;edgeStyle=orthogonalEdgeStyle;exitX=0.5;exitY=0;exitDx=0;exitDy=0;entryX=0.5;entryY=1;entryDx=0;entryDy=0;" edge="1" parent="SLhK5RNujh2QTGwtFG9k-1" source="TM-6vdGgmFQAHBn-hN1Q-111" target="TM-6vdGgmFQAHBn-hN1Q-90">
                    <mxGeometry width="50" height="50" relative="1" as="geometry">
                        <mxPoint x="2127.6099999999997" y="833" as="sourcePoint"/>
                        <mxPoint x="2207.61" y="593" as="targetPoint"/>
                        <Array as="points"/>
                    </mxGeometry>
                </mxCell>
                <mxCell id="TM-6vdGgmFQAHBn-hN1Q-114" value="&amp;lt;&amp;lt;rdfs:subClassOf&amp;gt;&amp;gt;" style="text;html=1;align=center;verticalAlign=middle;resizable=0;points=[];fontColor=#000000;labelBackgroundColor=#ffffff;" vertex="1" connectable="0" parent="TM-6vdGgmFQAHBn-hN1Q-113">
                    <mxGeometry x="-0.3277" relative="1" as="geometry">
                        <mxPoint x="-5" y="38" as="offset"/>
                    </mxGeometry>
                </mxCell>
                <mxCell id="TM-6vdGgmFQAHBn-hN1Q-115" value="" style="endArrow=open;html=1;fontColor=#000099;endFill=0;dashed=1;endSize=8;arcSize=0;rounded=0;edgeStyle=orthogonalEdgeStyle;exitX=0.5;exitY=0;exitDx=0;exitDy=0;entryX=0.5;entryY=1;entryDx=0;entryDy=0;fontStyle=1" edge="1" parent="SLhK5RNujh2QTGwtFG9k-1" source="TM-6vdGgmFQAHBn-hN1Q-112" target="TM-6vdGgmFQAHBn-hN1Q-90">
                    <mxGeometry width="50" height="50" relative="1" as="geometry">
                        <mxPoint x="2007.61" y="1033.0000000000002" as="sourcePoint"/>
                        <mxPoint x="2127.6099999999997" y="893" as="targetPoint"/>
                        <Array as="points"/>
                    </mxGeometry>
                </mxCell>
                <mxCell id="TM-6vdGgmFQAHBn-hN1Q-116" value="&amp;lt;&amp;lt;rdfs:subClassOf&amp;gt;&amp;gt;" style="text;html=1;align=center;verticalAlign=middle;resizable=0;points=[];fontColor=#000000;labelBackgroundColor=#ffffff;" vertex="1" connectable="0" parent="TM-6vdGgmFQAHBn-hN1Q-115">
                    <mxGeometry x="-0.3277" relative="1" as="geometry">
                        <mxPoint x="-5" y="38" as="offset"/>
                    </mxGeometry>
                </mxCell>
                <mxCell id="TM-6vdGgmFQAHBn-hN1Q-117" value="*unit:GM" style="text;html=1;strokeColor=none;fillColor=none;align=center;verticalAlign=middle;whiteSpace=wrap;rounded=0;fontColor=#4D4D4D;fontSize=10;" vertex="1" parent="SLhK5RNujh2QTGwtFG9k-1">
                    <mxGeometry x="2823.61" y="1243.0000000000002" width="90" height="20" as="geometry"/>
                </mxCell>
                <mxCell id="TM-6vdGgmFQAHBn-hN1Q-118" value="phcat:LampPowerCondition" style="rounded=0;whiteSpace=wrap;html=1;snapToPoint=1;points=[[0.1,0],[0.2,0],[0.3,0],[0.4,0],[0.5,0],[0.6,0],[0.7,0],[0.8,0],[0.9,0],[0,0.1],[0,0.3],[0,0.5],[0,0.7],[0,0.9],[0.1,1],[0.2,1],[0.3,1],[0.4,1],[0.5,1],[0.6,1],[0.7,1],[0.8,1],[0.9,1],[1,0.1],[1,0.3],[1,0.5],[1,0.7],[1,0.9]];fillColor=#dae8fc;strokeColor=#6c8ebf;" vertex="1" parent="SLhK5RNujh2QTGwtFG9k-1">
                    <mxGeometry x="2350" y="1023" width="170" height="30" as="geometry"/>
                </mxCell>
                <mxCell id="TM-6vdGgmFQAHBn-hN1Q-119" value="phcat:LampIrradianceCondition" style="rounded=0;whiteSpace=wrap;html=1;snapToPoint=1;points=[[0.1,0],[0.2,0],[0.3,0],[0.4,0],[0.5,0],[0.6,0],[0.7,0],[0.8,0],[0.9,0],[0,0.1],[0,0.3],[0,0.5],[0,0.7],[0,0.9],[0.1,1],[0.2,1],[0.3,1],[0.4,1],[0.5,1],[0.6,1],[0.7,1],[0.8,1],[0.9,1],[1,0.1],[1,0.3],[1,0.5],[1,0.7],[1,0.9]];fillColor=#dae8fc;strokeColor=#6c8ebf;" vertex="1" parent="SLhK5RNujh2QTGwtFG9k-1">
                    <mxGeometry x="2552.61" y="1023" width="187.39" height="30" as="geometry"/>
                </mxCell>
                <mxCell id="TM-6vdGgmFQAHBn-hN1Q-120" value="" style="endArrow=open;html=1;fontColor=#000099;endFill=0;dashed=1;endSize=8;arcSize=0;rounded=0;edgeStyle=orthogonalEdgeStyle;exitX=0.5;exitY=0;exitDx=0;exitDy=0;entryX=0.5;entryY=1;entryDx=0;entryDy=0;" edge="1" parent="SLhK5RNujh2QTGwtFG9k-1" source="TM-6vdGgmFQAHBn-hN1Q-118" target="TM-6vdGgmFQAHBn-hN1Q-92">
                    <mxGeometry width="50" height="50" relative="1" as="geometry">
                        <mxPoint x="2413.61" y="1043.0000000000002" as="sourcePoint"/>
                        <mxPoint x="2542.61" y="883" as="targetPoint"/>
                        <Array as="points"/>
                    </mxGeometry>
                </mxCell>
                <mxCell id="TM-6vdGgmFQAHBn-hN1Q-121" value="&amp;lt;&amp;lt;rdfs:subClassOf&amp;gt;&amp;gt;" style="text;html=1;align=center;verticalAlign=middle;resizable=0;points=[];fontColor=#000000;labelBackgroundColor=#ffffff;" vertex="1" connectable="0" parent="TM-6vdGgmFQAHBn-hN1Q-120">
                    <mxGeometry x="-0.3277" relative="1" as="geometry">
                        <mxPoint x="-16" y="30" as="offset"/>
                    </mxGeometry>
                </mxCell>
                <mxCell id="TM-6vdGgmFQAHBn-hN1Q-122" value="" style="endArrow=open;html=1;fontColor=#000099;endFill=0;dashed=1;endSize=8;arcSize=0;rounded=0;edgeStyle=orthogonalEdgeStyle;exitX=0.5;exitY=0;exitDx=0;exitDy=0;entryX=0.5;entryY=1;entryDx=0;entryDy=0;fontStyle=1" edge="1" parent="SLhK5RNujh2QTGwtFG9k-1" source="TM-6vdGgmFQAHBn-hN1Q-119" target="TM-6vdGgmFQAHBn-hN1Q-92">
                    <mxGeometry width="50" height="50" relative="1" as="geometry">
                        <mxPoint x="2663.61" y="1043.0000000000002" as="sourcePoint"/>
                        <mxPoint x="2533.61" y="903" as="targetPoint"/>
                        <Array as="points"/>
                    </mxGeometry>
                </mxCell>
                <mxCell id="TM-6vdGgmFQAHBn-hN1Q-123" value="&amp;lt;&amp;lt;rdfs:subClassOf&amp;gt;&amp;gt;" style="text;html=1;align=center;verticalAlign=middle;resizable=0;points=[];fontColor=#000000;labelBackgroundColor=#ffffff;" vertex="1" connectable="0" parent="TM-6vdGgmFQAHBn-hN1Q-122">
                    <mxGeometry x="-0.3277" relative="1" as="geometry">
                        <mxPoint x="17" y="30" as="offset"/>
                    </mxGeometry>
                </mxCell>
                <mxCell id="TM-6vdGgmFQAHBn-hN1Q-124" value="phcat:TemperatureCondition" style="rounded=0;whiteSpace=wrap;html=1;snapToPoint=1;points=[[0.1,0],[0.2,0],[0.3,0],[0.4,0],[0.5,0],[0.6,0],[0.7,0],[0.8,0],[0.9,0],[0,0.1],[0,0.3],[0,0.5],[0,0.7],[0,0.9],[0.1,1],[0.2,1],[0.3,1],[0.4,1],[0.5,1],[0.6,1],[0.7,1],[0.8,1],[0.9,1],[1,0.1],[1,0.3],[1,0.5],[1,0.7],[1,0.9]];fillColor=#dae8fc;strokeColor=#6c8ebf;" vertex="1" parent="SLhK5RNujh2QTGwtFG9k-1">
                    <mxGeometry x="2970" y="823" width="190" height="30" as="geometry"/>
                </mxCell>
                <mxCell id="TM-6vdGgmFQAHBn-hN1Q-125" value="phcat:SpaceVelocityCondition" style="rounded=0;whiteSpace=wrap;html=1;snapToPoint=1;points=[[0.1,0],[0.2,0],[0.3,0],[0.4,0],[0.5,0],[0.6,0],[0.7,0],[0.8,0],[0.9,0],[0,0.1],[0,0.3],[0,0.5],[0,0.7],[0,0.9],[0.1,1],[0.2,1],[0.3,1],[0.4,1],[0.5,1],[0.6,1],[0.7,1],[0.8,1],[0.9,1],[1,0.1],[1,0.3],[1,0.5],[1,0.7],[1,0.9]];fillColor=#dae8fc;strokeColor=#6c8ebf;" vertex="1" parent="SLhK5RNujh2QTGwtFG9k-1">
                    <mxGeometry x="3370" y="823" width="190" height="30" as="geometry"/>
                </mxCell>
                <mxCell id="TM-6vdGgmFQAHBn-hN1Q-126" value="phcat:ReactionTimeCondition" style="rounded=0;whiteSpace=wrap;html=1;snapToPoint=1;points=[[0.1,0],[0.2,0],[0.3,0],[0.4,0],[0.5,0],[0.6,0],[0.7,0],[0.8,0],[0.9,0],[0,0.1],[0,0.3],[0,0.5],[0,0.7],[0,0.9],[0.1,1],[0.2,1],[0.3,1],[0.4,1],[0.5,1],[0.6,1],[0.7,1],[0.8,1],[0.9,1],[1,0.1],[1,0.3],[1,0.5],[1,0.7],[1,0.9]];fillColor=#dae8fc;strokeColor=#6c8ebf;" vertex="1" parent="SLhK5RNujh2QTGwtFG9k-1">
                    <mxGeometry x="3627" y="823" width="190" height="30" as="geometry"/>
                </mxCell>
                <mxCell id="TM-6vdGgmFQAHBn-hN1Q-127" value="" style="endArrow=open;html=1;fontColor=#000099;endFill=0;dashed=1;endSize=8;arcSize=0;rounded=0;edgeStyle=orthogonalEdgeStyle;exitX=0.5;exitY=0;exitDx=0;exitDy=0;entryX=0.5;entryY=1;entryDx=0;entryDy=0;" edge="1" parent="SLhK5RNujh2QTGwtFG9k-1" source="TM-6vdGgmFQAHBn-hN1Q-124" target="TM-6vdGgmFQAHBn-hN1Q-66">
                    <mxGeometry width="50" height="50" relative="1" as="geometry">
                        <mxPoint x="3077.6100000000006" y="833" as="sourcePoint"/>
                        <mxPoint x="2728.6100000000006" y="610.0000000000005" as="targetPoint"/>
                        <Array as="points"/>
                    </mxGeometry>
                </mxCell>
                <mxCell id="TM-6vdGgmFQAHBn-hN1Q-128" value="&amp;lt;&amp;lt;rdfs:subClassOf&amp;gt;&amp;gt;" style="text;html=1;align=center;verticalAlign=middle;resizable=0;points=[];fontColor=#000000;labelBackgroundColor=#ffffff;" vertex="1" connectable="0" parent="TM-6vdGgmFQAHBn-hN1Q-127">
                    <mxGeometry x="-0.3277" relative="1" as="geometry">
                        <mxPoint x="96" y="59" as="offset"/>
                    </mxGeometry>
                </mxCell>
                <mxCell id="TM-6vdGgmFQAHBn-hN1Q-129" value="" style="endArrow=open;html=1;fontColor=#000099;endFill=0;dashed=1;endSize=8;arcSize=0;rounded=0;edgeStyle=orthogonalEdgeStyle;exitX=0.5;exitY=0;exitDx=0;exitDy=0;entryX=0.5;entryY=1;entryDx=0;entryDy=0;" edge="1" parent="SLhK5RNujh2QTGwtFG9k-1" source="TM-6vdGgmFQAHBn-hN1Q-168" target="TM-6vdGgmFQAHBn-hN1Q-66">
                    <mxGeometry width="50" height="50" relative="1" as="geometry">
                        <mxPoint x="3261.5" y="823" as="sourcePoint"/>
                        <mxPoint x="2738.6100000000006" y="620.0000000000005" as="targetPoint"/>
                        <Array as="points"/>
                    </mxGeometry>
                </mxCell>
                <mxCell id="TM-6vdGgmFQAHBn-hN1Q-130" value="&amp;lt;&amp;lt;rdfs:subClassOf&amp;gt;&amp;gt;" style="text;html=1;align=center;verticalAlign=middle;resizable=0;points=[];fontColor=#000000;labelBackgroundColor=#ffffff;" vertex="1" connectable="0" parent="TM-6vdGgmFQAHBn-hN1Q-129">
                    <mxGeometry x="-0.3277" relative="1" as="geometry">
                        <mxPoint x="165" y="69" as="offset"/>
                    </mxGeometry>
                </mxCell>
                <mxCell id="TM-6vdGgmFQAHBn-hN1Q-131" value="" style="endArrow=open;html=1;fontColor=#000099;endFill=0;dashed=1;endSize=8;arcSize=0;rounded=0;edgeStyle=orthogonalEdgeStyle;exitX=0.2;exitY=0;exitDx=0;exitDy=0;entryX=0.5;entryY=1;entryDx=0;entryDy=0;" edge="1" parent="SLhK5RNujh2QTGwtFG9k-1" source="TM-6vdGgmFQAHBn-hN1Q-125" target="TM-6vdGgmFQAHBn-hN1Q-66">
                    <mxGeometry width="50" height="50" relative="1" as="geometry">
                        <mxPoint x="3551.499999999999" y="833" as="sourcePoint"/>
                        <mxPoint x="2728.6100000000006" y="610.0000000000005" as="targetPoint"/>
                        <Array as="points"/>
                    </mxGeometry>
                </mxCell>
                <mxCell id="TM-6vdGgmFQAHBn-hN1Q-132" value="&amp;lt;&amp;lt;rdfs:subClassOf&amp;gt;&amp;gt;" style="text;html=1;align=center;verticalAlign=middle;resizable=0;points=[];fontColor=#000000;labelBackgroundColor=#ffffff;" vertex="1" connectable="0" parent="TM-6vdGgmFQAHBn-hN1Q-131">
                    <mxGeometry x="-0.3277" relative="1" as="geometry">
                        <mxPoint x="220" y="59" as="offset"/>
                    </mxGeometry>
                </mxCell>
                <mxCell id="TM-6vdGgmFQAHBn-hN1Q-133" value="" style="endArrow=open;html=1;fontColor=#000099;endFill=0;dashed=1;endSize=8;arcSize=0;rounded=0;edgeStyle=orthogonalEdgeStyle;exitX=0.5;exitY=0;exitDx=0;exitDy=0;entryX=0.5;entryY=1;entryDx=0;entryDy=0;" edge="1" parent="SLhK5RNujh2QTGwtFG9k-1" source="TM-6vdGgmFQAHBn-hN1Q-126" target="TM-6vdGgmFQAHBn-hN1Q-66">
                    <mxGeometry width="50" height="50" relative="1" as="geometry">
                        <mxPoint x="3755" y="833" as="sourcePoint"/>
                        <mxPoint x="2728.6100000000006" y="610.0000000000005" as="targetPoint"/>
                        <Array as="points"/>
                    </mxGeometry>
                </mxCell>
                <mxCell id="TM-6vdGgmFQAHBn-hN1Q-134" value="&amp;lt;&amp;lt;rdfs:subClassOf&amp;gt;&amp;gt;" style="text;html=1;align=center;verticalAlign=middle;resizable=0;points=[];fontColor=#000000;labelBackgroundColor=#ffffff;" vertex="1" connectable="0" parent="TM-6vdGgmFQAHBn-hN1Q-133">
                    <mxGeometry x="-0.3277" relative="1" as="geometry">
                        <mxPoint x="301" y="59" as="offset"/>
                    </mxGeometry>
                </mxCell>
                <mxCell id="TM-6vdGgmFQAHBn-hN1Q-135" style="rounded=0;orthogonalLoop=1;jettySize=auto;html=1;dashed=1;endSize=8;entryX=1;entryY=0.5;entryDx=0;entryDy=0;exitX=0.5;exitY=1;exitDx=0;exitDy=0;edgeStyle=orthogonalEdgeStyle;" edge="1" parent="SLhK5RNujh2QTGwtFG9k-1" source="TM-6vdGgmFQAHBn-hN1Q-111" target="TM-6vdGgmFQAHBn-hN1Q-80">
                    <mxGeometry relative="1" as="geometry">
                        <mxPoint x="1822.5703174603168" y="893" as="sourcePoint"/>
                        <mxPoint x="1110" y="1405" as="targetPoint"/>
                    </mxGeometry>
                </mxCell>
                <mxCell id="TM-6vdGgmFQAHBn-hN1Q-136" value="qudt:unit (1..1)" style="edgeLabel;html=1;align=center;verticalAlign=middle;resizable=0;points=[];fontSize=12;" vertex="1" connectable="0" parent="TM-6vdGgmFQAHBn-hN1Q-135">
                    <mxGeometry x="-0.2748" y="-1" relative="1" as="geometry">
                        <mxPoint x="109" y="-191" as="offset"/>
                    </mxGeometry>
                </mxCell>
                <mxCell id="TM-6vdGgmFQAHBn-hN1Q-137" style="rounded=0;orthogonalLoop=1;jettySize=auto;html=1;dashed=1;endSize=8;entryX=1;entryY=0.5;entryDx=0;entryDy=0;exitX=0.5;exitY=1;exitDx=0;exitDy=0;edgeStyle=orthogonalEdgeStyle;" edge="1" parent="SLhK5RNujh2QTGwtFG9k-1" source="TM-6vdGgmFQAHBn-hN1Q-173" target="TM-6vdGgmFQAHBn-hN1Q-80">
                    <mxGeometry relative="1" as="geometry">
                        <mxPoint x="2028.6949999999997" y="1063" as="sourcePoint"/>
                        <mxPoint x="1110" y="1405" as="targetPoint"/>
                    </mxGeometry>
                </mxCell>
                <mxCell id="TM-6vdGgmFQAHBn-hN1Q-138" value="qudt:unit (1..1)" style="edgeLabel;html=1;align=center;verticalAlign=middle;resizable=0;points=[];fontSize=12;" vertex="1" connectable="0" parent="TM-6vdGgmFQAHBn-hN1Q-137">
                    <mxGeometry x="-0.2748" y="-1" relative="1" as="geometry">
                        <mxPoint x="196" y="-194" as="offset"/>
                    </mxGeometry>
                </mxCell>
                <mxCell id="TM-6vdGgmFQAHBn-hN1Q-139" style="rounded=0;orthogonalLoop=1;jettySize=auto;html=1;dashed=1;endSize=8;entryX=1;entryY=0.5;entryDx=0;entryDy=0;exitX=0.5;exitY=1;exitDx=0;exitDy=0;edgeStyle=orthogonalEdgeStyle;" edge="1" parent="SLhK5RNujh2QTGwtFG9k-1" source="TM-6vdGgmFQAHBn-hN1Q-174" target="TM-6vdGgmFQAHBn-hN1Q-80">
                    <mxGeometry relative="1" as="geometry">
                        <mxPoint x="2233.6949999999997" y="1063" as="sourcePoint"/>
                        <mxPoint x="1120" y="1415" as="targetPoint"/>
                    </mxGeometry>
                </mxCell>
                <mxCell id="TM-6vdGgmFQAHBn-hN1Q-140" value="qudt:unit (1..1)" style="edgeLabel;html=1;align=center;verticalAlign=middle;resizable=0;points=[];fontSize=12;" vertex="1" connectable="0" parent="TM-6vdGgmFQAHBn-hN1Q-139">
                    <mxGeometry x="-0.2748" y="-1" relative="1" as="geometry">
                        <mxPoint x="259" y="-191" as="offset"/>
                    </mxGeometry>
                </mxCell>
                <mxCell id="TM-6vdGgmFQAHBn-hN1Q-141" style="rounded=0;orthogonalLoop=1;jettySize=auto;html=1;dashed=1;endSize=8;entryX=1;entryY=0.5;entryDx=0;entryDy=0;exitX=0.5;exitY=1;exitDx=0;exitDy=0;edgeStyle=orthogonalEdgeStyle;" edge="1" parent="SLhK5RNujh2QTGwtFG9k-1" source="TM-6vdGgmFQAHBn-hN1Q-175" target="TM-6vdGgmFQAHBn-hN1Q-80">
                    <mxGeometry relative="1" as="geometry">
                        <mxPoint x="2243.6949999999997" y="1073" as="sourcePoint"/>
                        <mxPoint x="1130" y="1425" as="targetPoint"/>
                    </mxGeometry>
                </mxCell>
                <mxCell id="TM-6vdGgmFQAHBn-hN1Q-142" value="qudt:unit (1..1)" style="edgeLabel;html=1;align=center;verticalAlign=middle;resizable=0;points=[];fontSize=12;" vertex="1" connectable="0" parent="TM-6vdGgmFQAHBn-hN1Q-141">
                    <mxGeometry x="-0.2748" y="-1" relative="1" as="geometry">
                        <mxPoint x="338" y="-181" as="offset"/>
                    </mxGeometry>
                </mxCell>
                <mxCell id="TM-6vdGgmFQAHBn-hN1Q-143" style="rounded=0;orthogonalLoop=1;jettySize=auto;html=1;dashed=1;endSize=8;entryX=1;entryY=0.5;entryDx=0;entryDy=0;exitX=0.5;exitY=1;exitDx=0;exitDy=0;fontStyle=1;edgeStyle=orthogonalEdgeStyle;" edge="1" parent="SLhK5RNujh2QTGwtFG9k-1" source="TM-6vdGgmFQAHBn-hN1Q-176" target="TM-6vdGgmFQAHBn-hN1Q-80">
                    <mxGeometry relative="1" as="geometry">
                        <mxPoint x="2253.6949999999997" y="1083" as="sourcePoint"/>
                        <mxPoint x="1140" y="1435" as="targetPoint"/>
                    </mxGeometry>
                </mxCell>
                <mxCell id="TM-6vdGgmFQAHBn-hN1Q-144" value="qudt:unit (1..1)" style="edgeLabel;html=1;align=center;verticalAlign=middle;resizable=0;points=[];fontSize=12;" vertex="1" connectable="0" parent="TM-6vdGgmFQAHBn-hN1Q-143">
                    <mxGeometry x="-0.2748" y="-1" relative="1" as="geometry">
                        <mxPoint x="367" y="-274" as="offset"/>
                    </mxGeometry>
                </mxCell>
                <mxCell id="TM-6vdGgmFQAHBn-hN1Q-145" style="edgeStyle=orthogonalEdgeStyle;rounded=0;orthogonalLoop=1;jettySize=auto;html=1;dashed=1;endSize=8;entryX=1;entryY=0.5;entryDx=0;entryDy=0;exitX=0.5;exitY=1;exitDx=0;exitDy=0;" edge="1" parent="SLhK5RNujh2QTGwtFG9k-1" source="TM-6vdGgmFQAHBn-hN1Q-177" target="TM-6vdGgmFQAHBn-hN1Q-80">
                    <mxGeometry relative="1" as="geometry">
                        <mxPoint x="3261.5" y="853" as="sourcePoint"/>
                        <mxPoint x="1110" y="1405" as="targetPoint"/>
                    </mxGeometry>
                </mxCell>
                <mxCell id="TM-6vdGgmFQAHBn-hN1Q-146" value="qudt:unit (1..1)" style="edgeLabel;html=1;align=center;verticalAlign=middle;resizable=0;points=[];fontSize=12;" vertex="1" connectable="0" parent="TM-6vdGgmFQAHBn-hN1Q-145">
                    <mxGeometry x="-0.2748" y="-1" relative="1" as="geometry">
                        <mxPoint x="455" y="-191" as="offset"/>
                    </mxGeometry>
                </mxCell>
                <mxCell id="TM-6vdGgmFQAHBn-hN1Q-147" style="edgeStyle=orthogonalEdgeStyle;rounded=0;orthogonalLoop=1;jettySize=auto;html=1;dashed=1;endSize=8;exitX=0.5;exitY=1;exitDx=0;exitDy=0;entryX=1;entryY=0.5;entryDx=0;entryDy=0;" edge="1" parent="SLhK5RNujh2QTGwtFG9k-1" source="TM-6vdGgmFQAHBn-hN1Q-178" target="TM-6vdGgmFQAHBn-hN1Q-80">
                    <mxGeometry relative="1" as="geometry">
                        <mxPoint x="2855" y="903" as="sourcePoint"/>
                        <mxPoint x="1120" y="1415" as="targetPoint"/>
                    </mxGeometry>
                </mxCell>
                <mxCell id="TM-6vdGgmFQAHBn-hN1Q-148" value="qudt:unit (1..1)" style="edgeLabel;html=1;align=center;verticalAlign=middle;resizable=0;points=[];fontSize=12;" vertex="1" connectable="0" parent="TM-6vdGgmFQAHBn-hN1Q-147">
                    <mxGeometry x="-0.2748" y="-1" relative="1" as="geometry">
                        <mxPoint x="518" y="-154" as="offset"/>
                    </mxGeometry>
                </mxCell>
                <mxCell id="TM-6vdGgmFQAHBn-hN1Q-149" style="edgeStyle=orthogonalEdgeStyle;rounded=0;orthogonalLoop=1;jettySize=auto;html=1;dashed=1;endSize=8;exitX=0.5;exitY=1;exitDx=0;exitDy=0;entryX=1;entryY=0.5;entryDx=0;entryDy=0;" edge="1" parent="SLhK5RNujh2QTGwtFG9k-1" source="TM-6vdGgmFQAHBn-hN1Q-179" target="TM-6vdGgmFQAHBn-hN1Q-80">
                    <mxGeometry relative="1" as="geometry">
                        <mxPoint x="2865" y="913" as="sourcePoint"/>
                        <mxPoint x="1130" y="1425" as="targetPoint"/>
                    </mxGeometry>
                </mxCell>
                <mxCell id="TM-6vdGgmFQAHBn-hN1Q-150" value="qudt:unit (1..1)" style="edgeLabel;html=1;align=center;verticalAlign=middle;resizable=0;points=[];fontSize=12;" vertex="1" connectable="0" parent="TM-6vdGgmFQAHBn-hN1Q-149">
                    <mxGeometry x="-0.2748" y="-1" relative="1" as="geometry">
                        <mxPoint x="611" y="-181" as="offset"/>
                    </mxGeometry>
                </mxCell>
                <mxCell id="TM-6vdGgmFQAHBn-hN1Q-151" value="*unit:NanoM&lt;span style=&quot;color: rgba(0, 0, 0, 0); font-family: monospace; font-size: 0px; text-align: start;&quot;&gt;%3CmxGraphModel%3E%3Croot%3E%3CmxCell%20id%3D%220%22%2F%3E%3CmxCell%20id%3D%221%22%20parent%3D%220%22%2F%3E%3CmxCell%20id%3D%222%22%20value%3D%22*unit%3AL%22%20style%3D%22text%3Bhtml%3D1%3BstrokeColor%3Dnone%3BfillColor%3Dnone%3Balign%3Dcenter%3BverticalAlign%3Dmiddle%3BwhiteSpace%3Dwrap%3Brounded%3D0%3BfontColor%3D%234D4D4D%3BfontSize%3D10%3B%22%20vertex%3D%221%22%20parent%3D%221%22%3E%3CmxGeometry%20x%3D%221802.61%22%20y%3D%221203.0000000000002%22%20width%3D%2290%22%20height%3D%2220%22%20as%3D%22geometry%22%2F%3E%3C%2FmxCell%3E%3C%2Froot%3E%3C%2FmxGraphModel%3E&lt;/span&gt;" style="text;html=1;strokeColor=none;fillColor=none;align=center;verticalAlign=middle;whiteSpace=wrap;rounded=0;fontColor=#4D4D4D;fontSize=10;" vertex="1" parent="SLhK5RNujh2QTGwtFG9k-1">
                    <mxGeometry x="2010" y="1193.0000000000002" width="90" height="20" as="geometry"/>
                </mxCell>
                <mxCell id="TM-6vdGgmFQAHBn-hN1Q-152" value="*unit:M2" style="text;html=1;strokeColor=none;fillColor=none;align=center;verticalAlign=middle;whiteSpace=wrap;rounded=0;fontColor=#4D4D4D;fontSize=10;" vertex="1" parent="SLhK5RNujh2QTGwtFG9k-1">
                    <mxGeometry x="2210" y="1193.0000000000002" width="90" height="20" as="geometry"/>
                </mxCell>
                <mxCell id="TM-6vdGgmFQAHBn-hN1Q-153" value="*unit:W" style="text;html=1;strokeColor=none;fillColor=none;align=center;verticalAlign=middle;whiteSpace=wrap;rounded=0;fontColor=#4D4D4D;fontSize=10;" vertex="1" parent="SLhK5RNujh2QTGwtFG9k-1">
                    <mxGeometry x="2420" y="1193.0000000000002" width="90" height="20" as="geometry"/>
                </mxCell>
                <mxCell id="TM-6vdGgmFQAHBn-hN1Q-154" value="*unit:W-PER-M2" style="text;html=1;strokeColor=none;fillColor=none;align=center;verticalAlign=middle;whiteSpace=wrap;rounded=0;fontColor=#4D4D4D;fontSize=10;" vertex="1" parent="SLhK5RNujh2QTGwtFG9k-1">
                    <mxGeometry x="2634.61" y="1213.0000000000002" width="90" height="20" as="geometry"/>
                </mxCell>
                <mxCell id="TM-6vdGgmFQAHBn-hN1Q-155" value="*unit:DEG_C" style="text;html=1;strokeColor=none;fillColor=none;align=center;verticalAlign=middle;whiteSpace=wrap;rounded=0;fontColor=#4D4D4D;fontSize=10;" vertex="1" parent="SLhK5RNujh2QTGwtFG9k-1">
                    <mxGeometry x="3060" y="1120.0000000000002" width="90" height="20" as="geometry"/>
                </mxCell>
                <mxCell id="TM-6vdGgmFQAHBn-hN1Q-156" value="*unit:BAR" style="text;html=1;strokeColor=none;fillColor=none;align=center;verticalAlign=middle;whiteSpace=wrap;rounded=0;fontColor=#4D4D4D;fontSize=10;" vertex="1" parent="SLhK5RNujh2QTGwtFG9k-1">
                    <mxGeometry x="3253" y="1203" width="67" height="20" as="geometry"/>
                </mxCell>
                <mxCell id="TM-6vdGgmFQAHBn-hN1Q-157" value="*unit:PER-HR" style="text;html=1;strokeColor=none;fillColor=none;align=center;verticalAlign=middle;whiteSpace=wrap;rounded=0;fontColor=#4D4D4D;fontSize=10;" vertex="1" parent="SLhK5RNujh2QTGwtFG9k-1">
                    <mxGeometry x="3450" y="1243" width="67" height="20" as="geometry"/>
                </mxCell>
                <mxCell id="TM-6vdGgmFQAHBn-hN1Q-158" value="*unit:HR" style="text;html=1;strokeColor=none;fillColor=none;align=center;verticalAlign=middle;whiteSpace=wrap;rounded=0;fontColor=#4D4D4D;fontSize=10;" vertex="1" parent="SLhK5RNujh2QTGwtFG9k-1">
                    <mxGeometry x="3722" y="1213" width="67" height="20" as="geometry"/>
                </mxCell>
                <mxCell id="TM-6vdGgmFQAHBn-hN1Q-159" style="edgeStyle=orthogonalEdgeStyle;rounded=0;orthogonalLoop=1;jettySize=auto;html=1;exitX=0.5;exitY=1;exitDx=0;exitDy=0;dashed=1;endSize=8;entryX=0.5;entryY=0;entryDx=0;entryDy=0;" edge="1" parent="SLhK5RNujh2QTGwtFG9k-1" source="TM-6vdGgmFQAHBn-hN1Q-83" target="TM-6vdGgmFQAHBn-hN1Q-80">
                    <mxGeometry relative="1" as="geometry">
                        <mxPoint x="65" y="960" as="sourcePoint"/>
                        <mxPoint x="990" y="1405" as="targetPoint"/>
                    </mxGeometry>
                </mxCell>
                <mxCell id="TM-6vdGgmFQAHBn-hN1Q-160" value="qudt:unit (1..1)" style="edgeLabel;html=1;align=center;verticalAlign=middle;resizable=0;points=[];fontSize=12;" vertex="1" connectable="0" parent="TM-6vdGgmFQAHBn-hN1Q-159">
                    <mxGeometry x="-0.2748" y="-1" relative="1" as="geometry">
                        <mxPoint x="16" y="-49" as="offset"/>
                    </mxGeometry>
                </mxCell>
                <mxCell id="TM-6vdGgmFQAHBn-hN1Q-161" style="edgeStyle=orthogonalEdgeStyle;rounded=0;orthogonalLoop=1;jettySize=auto;html=1;exitX=0.5;exitY=1;exitDx=0;exitDy=0;dashed=1;endSize=8;entryX=0.5;entryY=0;entryDx=0;entryDy=0;" edge="1" parent="SLhK5RNujh2QTGwtFG9k-1" source="TM-6vdGgmFQAHBn-hN1Q-84" target="TM-6vdGgmFQAHBn-hN1Q-80">
                    <mxGeometry relative="1" as="geometry">
                        <mxPoint x="1005" y="987" as="sourcePoint"/>
                        <mxPoint x="1050" y="1390" as="targetPoint"/>
                    </mxGeometry>
                </mxCell>
                <mxCell id="TM-6vdGgmFQAHBn-hN1Q-162" value="qudt:unit (1..1)" style="edgeLabel;html=1;align=center;verticalAlign=middle;resizable=0;points=[];fontSize=12;" vertex="1" connectable="0" parent="TM-6vdGgmFQAHBn-hN1Q-161">
                    <mxGeometry x="-0.2748" y="-1" relative="1" as="geometry">
                        <mxPoint x="11" y="-47" as="offset"/>
                    </mxGeometry>
                </mxCell>
                <mxCell id="TM-6vdGgmFQAHBn-hN1Q-163" value="*unit:EV" style="text;html=1;strokeColor=none;fillColor=none;align=center;verticalAlign=middle;whiteSpace=wrap;rounded=0;fontColor=#4D4D4D;fontSize=10;" vertex="1" parent="SLhK5RNujh2QTGwtFG9k-1">
                    <mxGeometry x="975" y="1111" width="90" height="19" as="geometry"/>
                </mxCell>
                <mxCell id="TM-6vdGgmFQAHBn-hN1Q-164" value="*unit:M2-PER-GM" style="text;html=1;strokeColor=none;fillColor=none;align=center;verticalAlign=middle;whiteSpace=wrap;rounded=0;fontColor=#4D4D4D;fontSize=10;" vertex="1" parent="SLhK5RNujh2QTGwtFG9k-1">
                    <mxGeometry x="1180" y="1111" width="90" height="19" as="geometry"/>
                </mxCell>
                <mxCell id="TM-6vdGgmFQAHBn-hN1Q-165" value="*obligatorio si operationMode == &quot;Continuo&quot;" style="text;html=1;strokeColor=none;fillColor=none;align=center;verticalAlign=middle;whiteSpace=wrap;rounded=0;fontColor=#4D4D4D;fontSize=10;" vertex="1" parent="SLhK5RNujh2QTGwtFG9k-1">
                    <mxGeometry x="3410" y="800" width="220" height="30" as="geometry"/>
                </mxCell>
                <mxCell id="TM-6vdGgmFQAHBn-hN1Q-166" value="phcat:Input" style="rounded=0;whiteSpace=wrap;html=1;snapToPoint=1;points=[[0.1,0],[0.2,0],[0.3,0],[0.4,0],[0.5,0],[0.6,0],[0.7,0],[0.8,0],[0.9,0],[0,0.1],[0,0.3],[0,0.5],[0,0.7],[0,0.9],[0.1,1],[0.2,1],[0.3,1],[0.4,1],[0.5,1],[0.6,1],[0.7,1],[0.8,1],[0.9,1],[1,0.1],[1,0.3],[1,0.5],[1,0.7],[1,0.9]];fillColor=#dae8fc;strokeColor=#6c8ebf;" vertex="1" parent="SLhK5RNujh2QTGwtFG9k-1">
                    <mxGeometry x="-39.94" y="-30" width="235.95029501162165" height="30" as="geometry"/>
                </mxCell>
                <mxCell id="TM-6vdGgmFQAHBn-hN1Q-167" value="phcat:percentage : Double&lt;br&gt;phcat:cristalStructure : String" style="rounded=0;whiteSpace=wrap;html=1;snapToPoint=1;points=[[0.1,0],[0.2,0],[0.3,0],[0.4,0],[0.5,0],[0.6,0],[0.7,0],[0.8,0],[0.9,0],[0,0.1],[0,0.3],[0,0.5],[0,0.7],[0,0.9],[0.1,1],[0.2,1],[0.3,1],[0.4,1],[0.5,1],[0.6,1],[0.7,1],[0.8,1],[0.9,1],[1,0.1],[1,0.3],[1,0.5],[1,0.7],[1,0.9]];dashed=1;" vertex="1" parent="SLhK5RNujh2QTGwtFG9k-1">
                    <mxGeometry x="-39.94" width="235.95" height="50" as="geometry"/>
                </mxCell>
                <mxCell id="TM-6vdGgmFQAHBn-hN1Q-168" value="phcat:PressureCondition" style="rounded=0;whiteSpace=wrap;html=1;snapToPoint=1;points=[[0.1,0],[0.2,0],[0.3,0],[0.4,0],[0.5,0],[0.6,0],[0.7,0],[0.8,0],[0.9,0],[0,0.1],[0,0.3],[0,0.5],[0,0.7],[0,0.9],[0.1,1],[0.2,1],[0.3,1],[0.4,1],[0.5,1],[0.6,1],[0.7,1],[0.8,1],[0.9,1],[1,0.1],[1,0.3],[1,0.5],[1,0.7],[1,0.9]];fillColor=#dae8fc;strokeColor=#6c8ebf;" vertex="1" parent="SLhK5RNujh2QTGwtFG9k-1">
                    <mxGeometry x="3190" y="824.5" width="160" height="30" as="geometry"/>
                </mxCell>
                <mxCell id="TM-6vdGgmFQAHBn-hN1Q-169" value="chebi:ChemicalEntity" style="rounded=0;whiteSpace=wrap;html=1;snapToPoint=1;points=[[0.1,0],[0.2,0],[0.3,0],[0.4,0],[0.5,0],[0.6,0],[0.7,0],[0.8,0],[0.9,0],[0,0.1],[0,0.3],[0,0.5],[0,0.7],[0,0.9],[0.1,1],[0.2,1],[0.3,1],[0.4,1],[0.5,1],[0.6,1],[0.7,1],[0.8,1],[0.9,1],[1,0.1],[1,0.3],[1,0.5],[1,0.7],[1,0.9]];" vertex="1" parent="SLhK5RNujh2QTGwtFG9k-1">
                    <mxGeometry x="-500" y="526.26" width="160" height="30" as="geometry"/>
                </mxCell>
                <mxCell id="TM-6vdGgmFQAHBn-hN1Q-170" value="&lt;div&gt;rdfs:label&lt;br&gt;&lt;/div&gt;&lt;div&gt;chebi:formula : String&lt;/div&gt;" style="rounded=0;whiteSpace=wrap;html=1;snapToPoint=1;points=[[0.1,0],[0.2,0],[0.3,0],[0.4,0],[0.5,0],[0.6,0],[0.7,0],[0.8,0],[0.9,0],[0,0.1],[0,0.3],[0,0.5],[0,0.7],[0,0.9],[0.1,1],[0.2,1],[0.3,1],[0.4,1],[0.5,1],[0.6,1],[0.7,1],[0.8,1],[0.9,1],[1,0.1],[1,0.3],[1,0.5],[1,0.7],[1,0.9]];dashed=1;" vertex="1" parent="SLhK5RNujh2QTGwtFG9k-1">
                    <mxGeometry x="-500" y="556.26" width="160" height="43.74" as="geometry"/>
                </mxCell>
                <mxCell id="TM-6vdGgmFQAHBn-hN1Q-171" value="" style="endArrow=open;html=1;fontColor=#000099;endFill=0;dashed=1;entryX=0.5;entryY=1;entryDx=0;entryDy=0;endSize=8;exitX=0.5;exitY=0;exitDx=0;exitDy=0;rounded=0;edgeStyle=orthogonalEdgeStyle;" edge="1" parent="SLhK5RNujh2QTGwtFG9k-1" source="TM-6vdGgmFQAHBn-hN1Q-34" target="TM-6vdGgmFQAHBn-hN1Q-20">
                    <mxGeometry width="50" height="50" relative="1" as="geometry">
                        <mxPoint x="-130.00000000000023" y="205" as="sourcePoint"/>
                        <mxPoint x="-130.00000000000023" y="130" as="targetPoint"/>
                        <Array as="points">
                            <mxPoint x="-220" y="270"/>
                            <mxPoint x="78" y="270"/>
                        </Array>
                    </mxGeometry>
                </mxCell>
                <mxCell id="TM-6vdGgmFQAHBn-hN1Q-172" value="&amp;lt;&amp;lt;rdf:type&amp;gt;&amp;gt;" style="text;html=1;align=center;verticalAlign=middle;resizable=0;points=[];fontColor=#000000;labelBackgroundColor=#ffffff;" vertex="1" connectable="0" parent="TM-6vdGgmFQAHBn-hN1Q-171">
                    <mxGeometry x="-0.3277" relative="1" as="geometry">
                        <mxPoint x="-54" y="50" as="offset"/>
                    </mxGeometry>
                </mxCell>
                <mxCell id="TM-6vdGgmFQAHBn-hN1Q-173" value="qudt:numericValue" style="rounded=0;whiteSpace=wrap;html=1;snapToPoint=1;points=[[0.1,0],[0.2,0],[0.3,0],[0.4,0],[0.5,0],[0.6,0],[0.7,0],[0.8,0],[0.9,0],[0,0.1],[0,0.3],[0,0.5],[0,0.7],[0,0.9],[0.1,1],[0.2,1],[0.3,1],[0.4,1],[0.5,1],[0.6,1],[0.7,1],[0.8,1],[0.9,1],[1,0.1],[1,0.3],[1,0.5],[1,0.7],[1,0.9]];dashed=1;" vertex="1" parent="SLhK5RNujh2QTGwtFG9k-1">
                    <mxGeometry x="2130" y="1053" width="180" height="27" as="geometry"/>
                </mxCell>
                <mxCell id="TM-6vdGgmFQAHBn-hN1Q-174" value="qudt:numericValue" style="rounded=0;whiteSpace=wrap;html=1;snapToPoint=1;points=[[0.1,0],[0.2,0],[0.3,0],[0.4,0],[0.5,0],[0.6,0],[0.7,0],[0.8,0],[0.9,0],[0,0.1],[0,0.3],[0,0.5],[0,0.7],[0,0.9],[0.1,1],[0.2,1],[0.3,1],[0.4,1],[0.5,1],[0.6,1],[0.7,1],[0.8,1],[0.9,1],[1,0.1],[1,0.3],[1,0.5],[1,0.7],[1,0.9]];dashed=1;" vertex="1" parent="SLhK5RNujh2QTGwtFG9k-1">
                    <mxGeometry x="2350" y="1053" width="170" height="27" as="geometry"/>
                </mxCell>
                <mxCell id="TM-6vdGgmFQAHBn-hN1Q-175" value="qudt:numericValue" style="rounded=0;whiteSpace=wrap;html=1;snapToPoint=1;points=[[0.1,0],[0.2,0],[0.3,0],[0.4,0],[0.5,0],[0.6,0],[0.7,0],[0.8,0],[0.9,0],[0,0.1],[0,0.3],[0,0.5],[0,0.7],[0,0.9],[0.1,1],[0.2,1],[0.3,1],[0.4,1],[0.5,1],[0.6,1],[0.7,1],[0.8,1],[0.9,1],[1,0.1],[1,0.3],[1,0.5],[1,0.7],[1,0.9]];dashed=1;" vertex="1" parent="SLhK5RNujh2QTGwtFG9k-1">
                    <mxGeometry x="2552.61" y="1053" width="187.39" height="27" as="geometry"/>
                </mxCell>
                <mxCell id="TM-6vdGgmFQAHBn-hN1Q-176" value="qudt:numericValue" style="rounded=0;whiteSpace=wrap;html=1;snapToPoint=1;points=[[0.1,0],[0.2,0],[0.3,0],[0.4,0],[0.5,0],[0.6,0],[0.7,0],[0.8,0],[0.9,0],[0,0.1],[0,0.3],[0,0.5],[0,0.7],[0,0.9],[0.1,1],[0.2,1],[0.3,1],[0.4,1],[0.5,1],[0.6,1],[0.7,1],[0.8,1],[0.9,1],[1,0.1],[1,0.3],[1,0.5],[1,0.7],[1,0.9]];dashed=1;" vertex="1" parent="SLhK5RNujh2QTGwtFG9k-1">
                    <mxGeometry x="2970" y="853" width="190" height="27" as="geometry"/>
                </mxCell>
                <mxCell id="TM-6vdGgmFQAHBn-hN1Q-177" value="qudt:numericValue" style="rounded=0;whiteSpace=wrap;html=1;snapToPoint=1;points=[[0.1,0],[0.2,0],[0.3,0],[0.4,0],[0.5,0],[0.6,0],[0.7,0],[0.8,0],[0.9,0],[0,0.1],[0,0.3],[0,0.5],[0,0.7],[0,0.9],[0.1,1],[0.2,1],[0.3,1],[0.4,1],[0.5,1],[0.6,1],[0.7,1],[0.8,1],[0.9,1],[1,0.1],[1,0.3],[1,0.5],[1,0.7],[1,0.9]];dashed=1;" vertex="1" parent="SLhK5RNujh2QTGwtFG9k-1">
                    <mxGeometry x="3190" y="854.5" width="160" height="27" as="geometry"/>
                </mxCell>
                <mxCell id="TM-6vdGgmFQAHBn-hN1Q-178" value="qudt:numericValue" style="rounded=0;whiteSpace=wrap;html=1;snapToPoint=1;points=[[0.1,0],[0.2,0],[0.3,0],[0.4,0],[0.5,0],[0.6,0],[0.7,0],[0.8,0],[0.9,0],[0,0.1],[0,0.3],[0,0.5],[0,0.7],[0,0.9],[0.1,1],[0.2,1],[0.3,1],[0.4,1],[0.5,1],[0.6,1],[0.7,1],[0.8,1],[0.9,1],[1,0.1],[1,0.3],[1,0.5],[1,0.7],[1,0.9]];dashed=1;" vertex="1" parent="SLhK5RNujh2QTGwtFG9k-1">
                    <mxGeometry x="3370" y="853" width="190" height="27" as="geometry"/>
                </mxCell>
                <mxCell id="TM-6vdGgmFQAHBn-hN1Q-179" value="qudt:numericValue" style="rounded=0;whiteSpace=wrap;html=1;snapToPoint=1;points=[[0.1,0],[0.2,0],[0.3,0],[0.4,0],[0.5,0],[0.6,0],[0.7,0],[0.8,0],[0.9,0],[0,0.1],[0,0.3],[0,0.5],[0,0.7],[0,0.9],[0.1,1],[0.2,1],[0.3,1],[0.4,1],[0.5,1],[0.6,1],[0.7,1],[0.8,1],[0.9,1],[1,0.1],[1,0.3],[1,0.5],[1,0.7],[1,0.9]];dashed=1;" vertex="1" parent="SLhK5RNujh2QTGwtFG9k-1">
                    <mxGeometry x="3627" y="853" width="190" height="27" as="geometry"/>
                </mxCell>
            </root>
        </mxGraphModel>
    </diagram>
    <diagram name="1000-feet-overview" id="3eHbpa_au46Eo9-U4b3-">
        <mxGraphModel dx="1938" dy="774" grid="1" gridSize="10" guides="1" tooltips="1" connect="1" arrows="1" fold="1" page="1" pageScale="1" pageWidth="827" pageHeight="1169" math="0" shadow="0">
            <root>
                <mxCell id="MMTwlJzof05a0x9XS48x-0"/>
                <mxCell id="MMTwlJzof05a0x9XS48x-1" parent="MMTwlJzof05a0x9XS48x-0"/>
                <mxCell id="MMTwlJzof05a0x9XS48x-2" value="&lt;div&gt;&lt;b&gt;dc:creator:&lt;/b&gt;&amp;nbsp;Oier Beaskoetxea&lt;/div&gt;&lt;div&gt;&lt;b&gt;owl:versionInfo:&lt;/b&gt; 0.4&lt;/div&gt;&lt;div&gt;&lt;b&gt;dc:title:&lt;/b&gt;&amp;nbsp;Photocatalysis Ontology&lt;/div&gt;" style="shape=document;whiteSpace=wrap;html=1;boundedLbl=1;labelBackgroundColor=#ffffff;strokeColor=#000000;fontSize=12;fontColor=#000000;size=0.23333333333333334;" parent="MMTwlJzof05a0x9XS48x-1" vertex="1">
                    <mxGeometry x="-290" y="160" width="253" height="90" as="geometry"/>
                </mxCell>
                <mxCell id="MMTwlJzof05a0x9XS48x-3" value="&lt;div&gt;&lt;b&gt;artleafs&lt;/b&gt;: http://base.namespace.com&lt;/div&gt;&lt;div&gt;&lt;b style=&quot;background-color: initial;&quot;&gt;bibo:&amp;nbsp;&lt;/b&gt;&lt;span style=&quot;background-color: initial;&quot;&gt;http://purl.org/ontology/bibo&lt;/span&gt;&lt;br&gt;&lt;/div&gt;&lt;div&gt;&lt;b&gt;chebi:&amp;nbsp;&lt;/b&gt;http://purl.obolibrary.org/obo/&lt;/div&gt;" style="shape=note;whiteSpace=wrap;html=1;backgroundOutline=1;darkOpacity=0.05;align=center;" parent="MMTwlJzof05a0x9XS48x-1" vertex="1">
                    <mxGeometry x="-290" y="260" width="280" height="70" as="geometry"/>
                </mxCell>
                <mxCell id="MMTwlJzof05a0x9XS48x-4" value="" style="endArrow=classic;html=1;endSize=8;dashed=1;arcSize=0;rounded=0;entryX=1;entryY=0.5;entryDx=0;entryDy=0;exitX=0.1;exitY=1;exitDx=0;exitDy=0;edgeStyle=orthogonalEdgeStyle;" parent="MMTwlJzof05a0x9XS48x-1" source="MMTwlJzof05a0x9XS48x-68" target="MMTwlJzof05a0x9XS48x-81" edge="1">
                    <mxGeometry width="50" height="50" relative="1" as="geometry">
                        <mxPoint x="680" y="578.1300000000006" as="sourcePoint"/>
                        <mxPoint x="414" y="735" as="targetPoint"/>
                    </mxGeometry>
                </mxCell>
                <mxCell id="MMTwlJzof05a0x9XS48x-5" value="&lt;span style=&quot;font-size: 12px;&quot;&gt;artleafs:hasOutput (1..n)&lt;/span&gt;" style="edgeLabel;html=1;align=center;verticalAlign=middle;resizable=0;points=[];labelBackgroundColor=#FFFFFF;" parent="MMTwlJzof05a0x9XS48x-4" vertex="1" connectable="0">
                    <mxGeometry x="-0.1912" y="-1" relative="1" as="geometry">
                        <mxPoint x="-4" y="-33" as="offset"/>
                    </mxGeometry>
                </mxCell>
                <mxCell id="MMTwlJzof05a0x9XS48x-20" value="*Note: pendiente de elegir la url" style="text;html=1;align=center;verticalAlign=middle;resizable=0;points=[];autosize=1;strokeColor=none;fillColor=none;" parent="MMTwlJzof05a0x9XS48x-1" vertex="1">
                    <mxGeometry x="-48.5" y="270" width="180" height="20" as="geometry"/>
                </mxCell>
                <mxCell id="MMTwlJzof05a0x9XS48x-27" value="" style="endArrow=classic;html=1;endSize=8;dashed=1;arcSize=0;rounded=0;edgeStyle=orthogonalEdgeStyle;entryX=0.7;entryY=1;entryDx=0;entryDy=0;exitX=0;exitY=0.5;exitDx=0;exitDy=0;" parent="MMTwlJzof05a0x9XS48x-1" source="MMTwlJzof05a0x9XS48x-81" target="MMTwlJzof05a0x9XS48x-25" edge="1">
                    <mxGeometry width="50" height="50" relative="1" as="geometry">
                        <mxPoint x="434.33000000000004" y="785.3199999999999" as="sourcePoint"/>
                        <mxPoint x="-268" y="576.2600000000002" as="targetPoint"/>
                    </mxGeometry>
                </mxCell>
                <mxCell id="MMTwlJzof05a0x9XS48x-28" value="&lt;span style=&quot;font-size: 12px;&quot;&gt;artleafs:hasChemical (1..1)&lt;/span&gt;" style="edgeLabel;html=1;align=center;verticalAlign=middle;resizable=0;points=[];labelBackgroundColor=#FFFFFF;fontSize=12;" parent="MMTwlJzof05a0x9XS48x-27" vertex="1" connectable="0">
                    <mxGeometry x="-0.1912" y="-1" relative="1" as="geometry">
                        <mxPoint x="-36" y="-44" as="offset"/>
                    </mxGeometry>
                </mxCell>
                <mxCell id="MMTwlJzof05a0x9XS48x-38" value="" style="endArrow=classic;html=1;endSize=8;dashed=1;arcSize=0;rounded=0;edgeStyle=orthogonalEdgeStyle;entryX=0.7;entryY=0;entryDx=0;entryDy=0;exitX=0;exitY=0.5;exitDx=0;exitDy=0;" parent="MMTwlJzof05a0x9XS48x-1" source="MMTwlJzof05a0x9XS48x-7" target="MMTwlJzof05a0x9XS48x-25" edge="1">
                    <mxGeometry width="50" height="50" relative="1" as="geometry">
                        <mxPoint x="507.6399999999994" y="650" as="sourcePoint"/>
                        <mxPoint x="112.67153284671531" y="437.5" as="targetPoint"/>
                    </mxGeometry>
                </mxCell>
                <mxCell id="MMTwlJzof05a0x9XS48x-39" value="&lt;span style=&quot;font-size: 12px;&quot;&gt;artleafs:hasChemical (1..1)&lt;/span&gt;" style="edgeLabel;html=1;align=center;verticalAlign=middle;resizable=0;points=[];labelBackgroundColor=#FFFFFF;" parent="MMTwlJzof05a0x9XS48x-38" vertex="1" connectable="0">
                    <mxGeometry x="-0.1912" y="-1" relative="1" as="geometry">
                        <mxPoint x="-36" y="36" as="offset"/>
                    </mxGeometry>
                </mxCell>
                <mxCell id="MMTwlJzof05a0x9XS48x-64" value="*Note: CHEBI:24431 is the class ID for chemical entity class" style="text;html=1;strokeColor=none;fillColor=none;align=center;verticalAlign=middle;whiteSpace=wrap;rounded=0;fontColor=#4D4D4D;fontSize=10;" parent="MMTwlJzof05a0x9XS48x-1" vertex="1">
                    <mxGeometry x="-350" y="470" width="150" height="50" as="geometry"/>
                </mxCell>
                <mxCell id="MMTwlJzof05a0x9XS48x-68" value="artleafs:MaterialTransformationProcess" style="rounded=0;whiteSpace=wrap;html=1;snapToPoint=1;points=[[0.1,0],[0.2,0],[0.3,0],[0.4,0],[0.5,0],[0.6,0],[0.7,0],[0.8,0],[0.9,0],[0,0.1],[0,0.3],[0,0.5],[0,0.7],[0,0.9],[0.1,1],[0.2,1],[0.3,1],[0.4,1],[0.5,1],[0.6,1],[0.7,1],[0.8,1],[0.9,1],[1,0.1],[1,0.3],[1,0.5],[1,0.7],[1,0.9]];fillColor=#dae8fc;strokeColor=#6c8ebf;" parent="MMTwlJzof05a0x9XS48x-1" vertex="1">
                    <mxGeometry x="139.2" y="510" width="260" height="30" as="geometry"/>
                </mxCell>
                <mxCell id="MMTwlJzof05a0x9XS48x-70" value="" style="endArrow=classic;html=1;endSize=8;dashed=1;arcSize=0;rounded=0;fontSize=9;fontColor=#FF0000;edgeStyle=orthogonalEdgeStyle;entryX=1;entryY=0.5;entryDx=0;entryDy=0;exitX=0.1;exitY=0;exitDx=0;exitDy=0;" parent="MMTwlJzof05a0x9XS48x-1" source="MMTwlJzof05a0x9XS48x-68" target="MMTwlJzof05a0x9XS48x-7" edge="1">
                    <mxGeometry width="50" height="50" relative="1" as="geometry">
                        <mxPoint x="671.9999999999995" y="524" as="sourcePoint"/>
                        <mxPoint x="196.01029501162202" y="-15" as="targetPoint"/>
                    </mxGeometry>
                </mxCell>
                <mxCell id="MMTwlJzof05a0x9XS48x-71" value="&lt;span style=&quot;font-size: 12px ; background-color: rgb(248 , 249 , 250)&quot;&gt;artleafs:hasInput (1..n)&lt;/span&gt;" style="edgeLabel;html=1;align=center;verticalAlign=middle;resizable=0;points=[];fontSize=9;fontColor=#000000;strokeColor=#FF0000;" parent="MMTwlJzof05a0x9XS48x-70" vertex="1" connectable="0">
                    <mxGeometry x="-0.1912" y="-1" relative="1" as="geometry">
                        <mxPoint x="-6" y="28" as="offset"/>
                    </mxGeometry>
                </mxCell>
                <mxCell id="MMTwlJzof05a0x9XS48x-72" value="" style="endArrow=classic;html=1;endSize=8;dashed=1;arcSize=0;rounded=0;fontSize=9;fontColor=#FF0000;exitX=0.9;exitY=0;exitDx=0;exitDy=0;edgeStyle=orthogonalEdgeStyle;entryX=0.5;entryY=1;entryDx=0;entryDy=0;" parent="MMTwlJzof05a0x9XS48x-1" source="MMTwlJzof05a0x9XS48x-68" target="MMTwlJzof05a0x9XS48x-85" edge="1">
                    <mxGeometry width="50" height="50" relative="1" as="geometry">
                        <mxPoint x="690.0000000000005" y="551.2600000000002" as="sourcePoint"/>
                        <mxPoint x="445.29411764705884" y="230" as="targetPoint"/>
                    </mxGeometry>
                </mxCell>
                <mxCell id="MMTwlJzof05a0x9XS48x-73" value="&lt;span style=&quot;font-size: 12px ; background-color: rgb(248 , 249 , 250)&quot;&gt;artleafs:reportedIn (1..1)&lt;/span&gt;" style="edgeLabel;html=1;align=center;verticalAlign=middle;resizable=0;points=[];fontSize=9;fontColor=#000000;strokeColor=#FF0000;" parent="MMTwlJzof05a0x9XS48x-72" vertex="1" connectable="0">
                    <mxGeometry x="-0.1912" y="-1" relative="1" as="geometry">
                        <mxPoint x="-46" y="29" as="offset"/>
                    </mxGeometry>
                </mxCell>
                <mxCell id="MMTwlJzof05a0x9XS48x-74" value="" style="endArrow=classic;html=1;endSize=8;dashed=1;arcSize=0;rounded=0;fontSize=9;fontColor=#FF0000;exitX=0;exitY=0.5;exitDx=0;exitDy=0;entryX=0.6;entryY=0;entryDx=0;entryDy=0;edgeStyle=orthogonalEdgeStyle;" parent="MMTwlJzof05a0x9XS48x-1" source="MMTwlJzof05a0x9XS48x-85" target="MMTwlJzof05a0x9XS48x-68" edge="1">
                    <mxGeometry width="50" height="50" relative="1" as="geometry">
                        <mxPoint x="1678" y="-20" as="sourcePoint"/>
                        <mxPoint x="1130" y="-170.63" as="targetPoint"/>
                    </mxGeometry>
                </mxCell>
                <mxCell id="MMTwlJzof05a0x9XS48x-75" value="&lt;span style=&quot;font-size: 12px;&quot;&gt;artleafs:hasMaterialTransformationProcess (1..n)&lt;/span&gt;" style="edgeLabel;html=1;align=center;verticalAlign=middle;resizable=0;points=[];fontSize=9;fontColor=#000000;strokeColor=#FF0000;" parent="MMTwlJzof05a0x9XS48x-74" vertex="1" connectable="0">
                    <mxGeometry x="-0.1912" y="-1" relative="1" as="geometry">
                        <mxPoint x="-14" y="36" as="offset"/>
                    </mxGeometry>
                </mxCell>
                <mxCell id="MMTwlJzof05a0x9XS48x-76" value="" style="endArrow=classic;html=1;endSize=8;dashed=1;arcSize=0;rounded=0;exitX=1;exitY=0.5;exitDx=0;exitDy=0;entryX=0;entryY=0.5;entryDx=0;entryDy=0;edgeStyle=orthogonalEdgeStyle;fontStyle=1" parent="MMTwlJzof05a0x9XS48x-1" source="MMTwlJzof05a0x9XS48x-68" target="MMTwlJzof05a0x9XS48x-78" edge="1">
                    <mxGeometry width="50" height="50" relative="1" as="geometry">
                        <mxPoint x="1070" y="195" as="sourcePoint"/>
                        <mxPoint x="1470" y="375" as="targetPoint"/>
                    </mxGeometry>
                </mxCell>
                <mxCell id="MMTwlJzof05a0x9XS48x-77" value="&lt;span style=&quot;font-size: 12px;&quot;&gt;artleafs:hasCondition (0..n)&lt;/span&gt;" style="edgeLabel;html=1;align=center;verticalAlign=middle;resizable=0;points=[];labelBackgroundColor=#FFFFFF;" parent="MMTwlJzof05a0x9XS48x-76" vertex="1" connectable="0">
                    <mxGeometry x="-0.1912" y="-1" relative="1" as="geometry">
                        <mxPoint x="19" y="-1" as="offset"/>
                    </mxGeometry>
                </mxCell>
                <mxCell id="MMTwlJzof05a0x9XS48x-78" value="artleafs:Condition" style="rounded=0;whiteSpace=wrap;html=1;snapToPoint=1;points=[[0.1,0],[0.2,0],[0.3,0],[0.4,0],[0.5,0],[0.6,0],[0.7,0],[0.8,0],[0.9,0],[0,0.1],[0,0.3],[0,0.5],[0,0.7],[0,0.9],[0.1,1],[0.2,1],[0.3,1],[0.4,1],[0.5,1],[0.6,1],[0.7,1],[0.8,1],[0.9,1],[1,0.1],[1,0.3],[1,0.5],[1,0.7],[1,0.9]];fillColor=#dae8fc;strokeColor=#6c8ebf;" parent="MMTwlJzof05a0x9XS48x-1" vertex="1">
                    <mxGeometry x="590.0000000000002" y="510" width="210" height="30" as="geometry"/>
                </mxCell>
                <mxCell id="MMTwlJzof05a0x9XS48x-80" value="" style="group;fillColor=#dae8fc;strokeColor=#6c8ebf;" parent="MMTwlJzof05a0x9XS48x-1" vertex="1" connectable="0">
                    <mxGeometry x="-91.5" y="630" width="133" height="30" as="geometry"/>
                </mxCell>
                <mxCell id="MMTwlJzof05a0x9XS48x-81" value="artleafs:Output" style="rounded=0;whiteSpace=wrap;html=1;snapToPoint=1;points=[[0.1,0],[0.2,0],[0.3,0],[0.4,0],[0.5,0],[0.6,0],[0.7,0],[0.8,0],[0.9,0],[0,0.1],[0,0.3],[0,0.5],[0,0.7],[0,0.9],[0.1,1],[0.2,1],[0.3,1],[0.4,1],[0.5,1],[0.6,1],[0.7,1],[0.8,1],[0.9,1],[1,0.1],[1,0.3],[1,0.5],[1,0.7],[1,0.9]];fontSize=12;fillColor=#dae8fc;strokeColor=#6c8ebf;" parent="MMTwlJzof05a0x9XS48x-80" vertex="1">
                    <mxGeometry width="133" height="30" as="geometry"/>
                </mxCell>
                <mxCell id="MMTwlJzof05a0x9XS48x-85" value="bibo:Article" style="rounded=0;whiteSpace=wrap;html=1;snapToPoint=1;points=[[0.1,0],[0.2,0],[0.3,0],[0.4,0],[0.5,0],[0.6,0],[0.7,0],[0.8,0],[0.9,0],[0,0.1],[0,0.3],[0,0.5],[0,0.7],[0,0.9],[0.1,1],[0.2,1],[0.3,1],[0.4,1],[0.5,1],[0.6,1],[0.7,1],[0.8,1],[0.9,1],[1,0.1],[1,0.3],[1,0.5],[1,0.7],[1,0.9]];" parent="MMTwlJzof05a0x9XS48x-1" vertex="1">
                    <mxGeometry x="500" y="290" width="119.2" height="30" as="geometry"/>
                </mxCell>
                <mxCell id="MMTwlJzof05a0x9XS48x-7" value="artleafs:Input" style="rounded=0;whiteSpace=wrap;html=1;snapToPoint=1;points=[[0.1,0],[0.2,0],[0.3,0],[0.4,0],[0.5,0],[0.6,0],[0.7,0],[0.8,0],[0.9,0],[0,0.1],[0,0.3],[0,0.5],[0,0.7],[0,0.9],[0.1,1],[0.2,1],[0.3,1],[0.4,1],[0.5,1],[0.6,1],[0.7,1],[0.8,1],[0.9,1],[1,0.1],[1,0.3],[1,0.5],[1,0.7],[1,0.9]];fillColor=#dae8fc;strokeColor=#6c8ebf;" parent="MMTwlJzof05a0x9XS48x-1" vertex="1">
                    <mxGeometry x="-91.5" y="410" width="150" height="30" as="geometry"/>
                </mxCell>
                <mxCell id="MMTwlJzof05a0x9XS48x-25" value="chebi:CHEBI:24431" style="rounded=0;whiteSpace=wrap;html=1;snapToPoint=1;points=[[0.1,0],[0.2,0],[0.3,0],[0.4,0],[0.5,0],[0.6,0],[0.7,0],[0.8,0],[0.9,0],[0,0.1],[0,0.3],[0,0.5],[0,0.7],[0,0.9],[0.1,1],[0.2,1],[0.3,1],[0.4,1],[0.5,1],[0.6,1],[0.7,1],[0.8,1],[0.9,1],[1,0.1],[1,0.3],[1,0.5],[1,0.7],[1,0.9]];" parent="MMTwlJzof05a0x9XS48x-1" vertex="1">
                    <mxGeometry x="-290" y="520" width="160" height="30" as="geometry"/>
                </mxCell>
                <mxCell id="wKu4E1Pbwn37lW0tcBNy-0" value="artleafs:????" style="rounded=0;whiteSpace=wrap;html=1;snapToPoint=1;points=[[0.1,0],[0.2,0],[0.3,0],[0.4,0],[0.5,0],[0.6,0],[0.7,0],[0.8,0],[0.9,0],[0,0.1],[0,0.3],[0,0.5],[0,0.7],[0,0.9],[0.1,1],[0.2,1],[0.3,1],[0.4,1],[0.5,1],[0.6,1],[0.7,1],[0.8,1],[0.9,1],[1,0.1],[1,0.3],[1,0.5],[1,0.7],[1,0.9]];fillColor=#dae8fc;strokeColor=#6c8ebf;" parent="MMTwlJzof05a0x9XS48x-1" vertex="1">
                    <mxGeometry x="280.0000000000002" y="640" width="210" height="30" as="geometry"/>
                </mxCell>
                <mxCell id="wKu4E1Pbwn37lW0tcBNy-1" value="" style="endArrow=classic;html=1;endSize=8;dashed=1;arcSize=0;rounded=0;exitX=0.7;exitY=1;exitDx=0;exitDy=0;entryX=0.5;entryY=0;entryDx=0;entryDy=0;edgeStyle=orthogonalEdgeStyle;fontStyle=1" parent="MMTwlJzof05a0x9XS48x-1" source="MMTwlJzof05a0x9XS48x-68" target="wKu4E1Pbwn37lW0tcBNy-0" edge="1">
                    <mxGeometry width="50" height="50" relative="1" as="geometry">
                        <mxPoint x="450" y="495" as="sourcePoint"/>
                        <mxPoint x="670" y="495" as="targetPoint"/>
                    </mxGeometry>
                </mxCell>
                <mxCell id="wKu4E1Pbwn37lW0tcBNy-2" value="&lt;span style=&quot;font-size: 12px;&quot;&gt;artleafs:has???? (1..n)&lt;/span&gt;" style="edgeLabel;html=1;align=center;verticalAlign=middle;resizable=0;points=[];labelBackgroundColor=#FFFFFF;" parent="wKu4E1Pbwn37lW0tcBNy-1" vertex="1" connectable="0">
                    <mxGeometry x="-0.1912" y="-1" relative="1" as="geometry">
                        <mxPoint x="19" y="-1" as="offset"/>
                    </mxGeometry>
                </mxCell>
            </root>
        </mxGraphModel>
    </diagram>
</mxfile>